<?xml version="1.0" encoding="iso-8859-1" ?>
<svg version="1.1" xmlns="http://www.w3.org/2000/svg" xmlns:xlink="http://www.w3.org/1999/xlink" 
    viewBox="0 0 1500 1500" width="1500" height="1500">
    
    
    <!-- ITEM 0 -->
    <g>
        <defs>
            <clipPath id="clip-path-id-viewbox-item-0">
                <rect x="0.0" y="0.0" width="281.692" height="230.114"/>
            </clipPath>
        </defs>
        <g transform="translate(118.0 255.0) rotate(20.679205336340274 620.0 507.0) scale(4.401970946991749 4.406511555142234)">
            <g clip-path="url(#clip-path-id-viewbox-item-0)" transform="translate(-0.0 -0.0)">
                
<g>
	<path style="fill:#E86367;" d="M262.15,62.872c-0.94,1.5-2.16,2.83-2.61,4.61c-0.17,0.68-1,0.48-1.42,1.13   c-0.911,1.714-2.011,3.321-3.28,4.79c-1.5,1.62-2.36,3.77-4,5.14c-1.11,0.93-1.71,2.19-2.77,3.13c-1.12,1.124-2.125,2.357-3,3.68   c-2.305,2.977-4.765,5.831-7.37,8.55c-0.59,0.64-0.47,2.08-1.9,1.86c0.37,0.78-0.31,1-0.68,1.5c-1.19,1.61-2.6,3-3.77,4.66   s-2.71,3.12-4,4.7c-2.21,2.62-4.65,5.05-7,7.55c-2.061,2.035-4.241,3.945-6.53,5.72c-1.265,0.955-2.386,2.087-3.33,3.36   c-0.658,0.946-1.394,1.836-2.2,2.66c-2,2.09-4,4.09-6.17,6c-2.945,2.467-5.759,5.088-8.43,7.85c-1.16,1.3-3.05,2.16-4.25,3.43   c-1.47,1.57-3.34,2.49-4.87,3.91c-2,1.86-4.28,3.42-6.44,5.11c-1.49-0.69-2.54-2-3.88-2.87c-0.259-1.339-1.554-2.215-2.894-1.957   c-0.332,0.064-0.647,0.196-0.926,0.387c-0.35,0.26-0.44,0.85-0.93,0.94c-1.137,0.376-2.166,1.021-3,1.88   c-1.669,1.424-3.411,2.759-5.22,4c-0.38,0.23-0.86,0.16-1.22,0.53c-1.65,1.73-3.87,2.68-5.74,4.1c-1.16,0.89-2.78,1.56-3.45,2.56   c-0.84,1.25-2.07,1.72-3,2.62c-2,1.9-4.29,3.57-6.42,5.38c-1.25,1.06-2.57,2.07-3.88,3s-2.79,2.19-4.16,3.34   c-1,0.87-1.85,2-2.93,2.72c-1.4,0.936-1.992,2.699-1.44,4.29c0.27,0.84,1.39,1.44,0.83,2.54c-1.075-0.021-2.14,0.198-3.12,0.64   c-1.53,0.581-3.208,0.648-4.78,0.19c-0.978-0.311-1.982-0.532-3-0.66c-1.088-0.117-2.1-0.613-2.86-1.4   c-0.33-0.34-0.76-0.49-1.09-0.79c-0.93-0.083-1.823-0.407-2.59-0.94c-0.22-0.21-0.25-0.67-0.61-0.67c-1.41,0-2.05-1.3-3.12-1.89   c-1.046-0.527-2.049-1.136-3-1.82c-0.59-0.46-1.15-1.22-2.09-1.09c-0.51-0.23-0.83-0.75-1.27-1c-2.14-1.12-3.44-3.49-6-4   c0-1.71-2.52-0.7-2.77-2.54c-0.08-0.55-1.47-1.39-2.32-2c-1.45-1.1-2.41-2.73-3.91-3.83c-1.099-0.767-2.051-1.726-2.81-2.83   c-0.78-1.22-1.91-2.16-2.58-3.52c-0.487-0.895-1.171-1.668-2-2.26c-0.788-0.575-1.414-1.343-1.82-2.23c-0.7-1.62-2-2.83-2.86-4.3   s-2.33-3-3.35-4.54c-1.61-2.44-2.61-5.28-4.23-7.77c-0.374-0.516-0.612-1.118-0.69-1.75c-0.025-0.637-0.352-1.224-0.88-1.58   c0.05-0.588,0.023-1.179-0.08-1.76c-0.7-2.23-1.53-4.39-2-6.72c-0.41-1.92-0.51-3.92-1.1-5.81c0-2.29-0.06-4.57,0.14-6.87   c0.066-1.333,0.322-2.65,0.76-3.91l2.94,1.24l0,0c-0.06,0.68,0.52,0.68,0.91,0.77c1.244,0.124,2.401,0.692,3.26,1.6   c0.365,0.294,0.847,0.398,1.3,0.28c1.49-0.2,2.31-1.29,3.43-2c1.51-1.064,2.941-2.238,4.28-3.51c1.26-1.09,2.3-2.46,3.66-3.47   c1.73-1.27,3.57-2.41,5.4-3.51c1.065-0.807,2.181-1.545,3.34-2.21c0.54-0.23,0-0.86,0.59-0.82c0.839,0.113,1.635-0.406,1.87-1.22   c0.215-0.346,0.544-0.608,0.93-0.74c0.856-0.392,1.601-0.99,2.17-1.74c0.17-0.23,0.6-0.55,0.73-0.49c1.26,0.63,1.69-0.77,2-1.18   c1.2-1.43,2.84-2.32,4.07-3.71c0.87-1,2.5-1.7,3.13-2.66c0.87-1.33,2.26-1.75,3.14-2.85c1.22-1.54,3.18-2.3,4.2-4.08   c0.24-0.42,0.16-1,0.63-1.3s1.69-0.37,0.77-1.61c-0.39-0.52-0.21-1.46-1.14-1.68c-0.13-0.29-0.31-0.51-0.68-0.4l0,0   c-0.264-1.034-0.93-1.92-1.85-2.46c-1.17-1-2.74-0.82-4-1.6c-0.103-0.32,0.047-0.666,0.35-0.81c2.34-0.94,3.89-2.88,5.75-4.45   c1-0.87,1.86-2.15,2.85-2.72c1.56-0.89,2.64-2.44,4.48-3c0.8-0.23,1.36-1.32,2.18-1.88c1.79-1.23,3.55-2.49,5.32-3.74   c2.43-1.72,5.3-2.79,7.56-4.65s5-2.53,7-4.48c0.6-0.57,1.07-1.47,2.17-1c0.08,0,0.28-0.08,0.35-0.18c1.15-1.58,2.91-2.17,4.59-2.95   c0.803-0.465,1.554-1.015,2.24-1.64c1.71-1.31,3.59-2.32,5.35-3.52c2.19-1.48,4.57-2.64,6.72-4.17   c1.513-1.07,3.093-2.042,4.73-2.91c1-0.52,2.18-0.55,3-1.45c1.159-1.026,2.522-1.797,4-2.26c0.28-0.11,0.66-0.3,0.66-0.64   c0-0.58,0-0.47,0.53-0.26c0.79,0.33,1.38-0.61,1.87-1c2.37-1.66,4.895-3.086,7.54-4.26c1.84-0.82,4-1.28,5.6-2.31s3.5-0.79,4.92-2   c0.63-0.51,1.53-0.41,2.31-0.73c1.67-0.68,3.06-1.92,4.86-2.32c0.27-0.06,0.57-0.24,0.79-0.17c1.35,0.44,1.95-0.3,2.34-1.86   c0.28,1.05,0.43,1.76,1.24,0.75c0.31-0.39,1.19-0.32,1.81-0.46c0.34,1.15,0,2.62,1.54,3.21c0.013,0.112-0.004,0.226-0.05,0.33   c-0.7,0.11-0.17,0.36-0.13,0.63c0.13,1,0.42,1.93,0.53,2.87c0.23,1.84,0.53,3.67,0.79,5.51c0.09,0.64,0.87,0.94,0.75,1.29   c-0.49,1.36,0.75,2.16,1,3.3c0.26,1.31,1.59,2.36,2,3.78c0.18,0.62,0.71,0.46,1,0.66c0.61,0.38-0.78,0.71-0.29,1.32   c0,0,0,0.09,0.06,0.12c1.156,1.093,2.001,2.474,2.45,4c0.56,1.88,3,2.21,3.47,4.3c0.214,0.884,0.973,1.53,1.88,1.6   c0,2.23,2.4,2.85,3.15,4.61c0.356,0.785,0.898,1.472,1.58,2c1.55,1.2,2.9,2.63,4.4,3.88c1.25,1,2.44,2.46,3.84,3   c1.69,0.65,2.75,2.58,4.82,2.3c0.42,1,1.66,0.37,1.89,0.62c0.816,0.979,1.947,1.644,3.2,1.88c1.63,0.3,2.89,1.5,4.46,2   C256.98,61.802,259.64,62.032,262.15,62.872z M82.65,148.012c-0.29,1.228,0.192,2.509,1.22,3.24c1.78,1.19,3.85,1.91,5.7,3.06   c1.38,0.86,3,1.34,3.9,2.83c0.31,0.49,0.85,0.76,1.25,0.29c0.95-1.12,2.29-1.74,3.28-2.79c0.31-0.33,0.3-0.93,0.77-1.09   c1.76-0.6,2.72-2.24,4.25-3.19c1.54-0.961,2.977-2.076,4.29-3.33c2.15-2.06,5.12-3,7.13-5.22c0.19-0.21,0.58-0.23,0.86-0.38   c1.021-0.414,1.997-0.933,2.91-1.55c1.17-1,2.49-1.78,3.71-2.69c1.73-1.3,3.78-2.21,5.36-3.65c2-1.84,4.5-3,6.52-4.8   c0.82-0.74,1.46-2,2.85-2c0.15,0,0.33-0.41,0.42-0.66s0-0.57,0.4-0.6c0.929-0.14,1.702-0.789,2-1.68c0.5-1,1.65-1.79,1.26-3.18   c-0.237-0.664-0.574-1.288-1-1.85c-0.526-2.369-1.777-4.515-3.58-6.14c-0.545-0.687-1.395-1.061-2.27-1   c-2.09,0.28-4.14,0.76-6.2,1.19c-1.024,0.288-2.077,0.456-3.14,0.5c-1.74-0.189-3.499-0.036-5.18,0.45c-0.86,0.33-1.74,0-2.67,0.56   c-0.75,0.44-2.05,0.35-3.09,0.52c-1.728,0.226-3.444,0.54-5.14,0.94c-1.37,0.37-3,0-4.08,1.32c-0.718,0.83-1.493,1.609-2.32,2.33   c-1.94,1.79-3.92,3.54-5.93,5.26c-0.537,0.408-1.051,0.846-1.54,1.31c-0.79,0.84-1.86,1.29-2.69,2.17   c-0.83,0.88-1.89,1.39-2.79,2.15c-1.43,1.2-2.34,2.95-4,3.89c-1.09,0.6-1.59,2-2.68,2.45c-1.74,0.78-2,2.74-3.45,3.74   c-0.07,0,0,0.34,0.06,0.49c0.19,0.51,0.4,1,0.62,1.5c0.45,1,1.28,2.17,1.32,3C80.92,146.922,81.37,147.612,82.65,148.012   L82.65,148.012z M226.41,93.262c0.47-0.4,0.79-0.82,0.3-1.42c0.27-0.34,0.42-0.82,1-0.41c0.31,0.2,0.69-0.06,0.5-0.48   c-0.64-1.42,0.65-2.32,0.9-3.5c0.2-0.94,1.63-1.53,0.82-2.87c-0.124-0.736,0.057-1.49,0.5-2.09c1.08-1.23,0.93-1.68,0.06-2.38   c0.21-0.3,0.85-0.08,0.71-0.87c-0.284-1.296-0.225-2.644,0.17-3.91c0.352-1.355,0.268-2.786-0.24-4.09   c-0.367-1.515-0.529-3.072-0.48-4.63c-0.08-1.157-0.264-2.305-0.55-3.43c-0.19-1.08-0.8-2.14-0.71-3.34c0-0.4-0.3-0.94-0.4-0.86   c-1,0.77-1-0.41-1.49-0.61c1.14-0.67,1.2-1.71,0.45-2.8c-0.59-0.718-0.94-1.603-1-2.53c0.181-0.689-0.231-1.394-0.921-1.575   c-0.006-0.002-0.013-0.003-0.019-0.005c-1.41-0.39-1.21-1.69-1.51-2.59s0-0.89-0.78-0.7s-0.91,0.08-0.54-0.59s0.08-1-0.42-0.65   c-1.19,0.74-0.79-0.19-1-0.72s0.06-1.69-1.46-1.46c-0.78,0.12-2.5-1.11-2.32-1.7c0.54-1.78-1.59-1.05-1.58-2.08   c-1,0-1.47-0.68-1.89-1.48c-0.27-0.51-0.88-1-1.35-0.89c-1.018,0.282-2.103-0.121-2.69-1c-0.24-0.27-0.57-1.68-1.47-0.3   c-0.28,0.43-0.72-0.3-0.71-0.75c0.061-0.395,0.158-0.783,0.29-1.16c0.11-0.54-0.35-0.74-0.67-0.9c-0.51-0.26-0.58,0.07-0.48,0.5   c-0.067,0.09-0.168,0.148-0.28,0.16c-1.27-0.25-2.4-1.13-3.82-0.75c-0.28,0.07-0.39-0.31-0.32-0.62c-0.68,0.05-0.74-1.15-1.24-0.87   c-0.78,0.44-1.13,0-1.75-0.22c-1.06-0.34-2-1.39-3.31-0.77c-0.227,0.077-0.476-0.015-0.6-0.22c-0.71-0.819-1.77-1.247-2.85-1.15   c-1.45,0-3,0.42-4.4-0.22c-0.14-0.06-0.76-0.25-0.9,0.3c-0.09,0.34-0.18,0.31-0.54,0.2s-0.61-1.52-1.43-0.28   c-0.42,0.65-1.12-0.91-1.7-0.19s-0.53-0.79-0.87-0.22c-0.48,0.8-0.91,1-2,1c-1.113-0.021-2.198,0.355-3.06,1.06l-0.06,0.05   c-0.87-0.32-1.87,0.76-2.68-0.24c0,0-0.18,0-0.25,0.05c-0.9,0.59-2,0.82-2.87,1.37c-1.12,0.7-2.53,1-3.33,2.16   c-0.06,0.09-0.28,0.18-0.35,0.14c-1.22-0.68-1.87,0.58-2.53,1c-1.57,1.122-3.033,2.388-4.37,3.78c-0.47,0.44-1.28,0-1.61,0.82   c-0.446,1.221-1.265,2.27-2.34,3c-0.507,0.403-0.928,0.903-1.24,1.47c-0.71,0.92-1.35,1.9-2.14,2.75   c-1.06,1.14-1.82,2.49-2.83,3.68c-1.45,1.71-2,4-2.66,6.13c-0.22,0.66-0.92,0.8-1,1.63c-0.21,1.63-1.7,3-1,4.87   c-1.25,1.22-0.46,3-1.19,4.35c-0.38,0.7,0.52,1.06,0.29,1.52c-1.19,2.43-0.39,5-0.74,7.53c-0.08,0.56,0.66,1.43,0.44,1.75   c-0.75,1.07,0.6,2,0,3c1.3,2,1.05,4.61,2.36,6.72c0.576,0.71,0.967,1.552,1.14,2.45c0.091,1.006,0.534,1.948,1.25,2.66   c0.37,0.389,0.705,0.811,1,1.26c1,1.71,1.77,3.65,3.54,4.89c0.35,0.25,1,0.68,1,1.3c-0.07,1.11,0.7,1.47,1.45,1.92   c1.541,1,3.008,2.11,4.39,3.32c2.91,2.38,5.46,4.21,8.75,5.29c0.47,0.16,1.2,0.21,1.31,1c0,0.34,0.44,0.38,0.77,0.46   c1.15,0.29,2.4,0.25,3.36,1.23c0.34,0.373,0.826,0.577,1.33,0.56c2.15-0.49,4,1.07,6.07,0.92c1.43-0.1,2.88,0.2,4.33,0.2   c1.22,0,2.45-0.38,3.65,0.2c0.242,0.131,0.528,0.157,0.79,0.07c1.63-1,3.52-0.36,5.26-0.83s3.37-0.76,5.05-1.18   c0.761-0.338,1.551-0.606,2.36-0.8c1.431,0.101,2.827-0.468,3.78-1.54c0.135-0.201,0.408-0.255,0.61-0.12c0.56,0.39,1,0,1.37-0.28   c1.75-1.1,2.86-2.92,4.77-3.92c1.75-0.92,2.56-3.11,4.55-3.88c0.24-0.09,0.18-0.37,0.27-0.55c0.47-0.93,0.9-2.17,1.86-2.4   c1.38-0.32,0.54-2.21,1.95-2.25c-0.011-0.087-0.038-0.172-0.08-0.25c-0.61-0.72,0-1,0.5-1.11c0.456-0.05,0.784-0.461,0.734-0.916   c-0.003-0.028-0.008-0.056-0.014-0.084c-0.01-0.86,0.276-1.697,0.81-2.37C226.447,94.454,226.532,93.846,226.41,93.262z"></path>
	<path style="fill:#F2BD1E;" d="M103.58,177.352c0.94-0.13,1.5,0.63,2.09,1.09c0.951,0.684,1.954,1.293,3,1.82   c1.07,0.58,1.71,1.89,3.12,1.89c0.36,0,0.39,0.46,0.61,0.67c0.767,0.533,1.66,0.857,2.59,0.94c-0.657,2.42-1.614,4.748-2.85,6.93   c-0.75,1.24-1.61,2.41-2.44,3.61c-0.15,0.22-0.51,0.4-0.52,0.61c-0.09,1.81-1.54,2.92-2.45,4.15   c-0.978,1.485-2.064,2.895-3.25,4.22c-0.696,0.793-1.284,1.674-1.75,2.62c-0.942,1.612-2.11,3.081-3.47,4.36   c-1.56,1.49-2.64,3.35-4.27,4.79c-1.3,1.15-2.6,2.37-3.86,3.6c-1.53,1.49-3.45,1.34-5.3,1.24c-0.77,0-0.82-1.08-0.8-1.71   c-0.002-1.645,0.231-3.281,0.69-4.86c0.189-1.154,0.142-2.335-0.14-3.47c-0.46-2.61-0.18-5.21-0.31-7.82   c0-0.49,0.23-1.17-0.34-1.34s-0.89,0.4-1.14,0.83c-1.55,2.6-4,4.47-5.56,7.09c-0.192,0.254-0.452,0.448-0.75,0.56   c-1.59,0.82-2.56,2.34-3.87,3.48c-2,1.77-4,3.7-6.45,5c-1.11,0.722-2.167,1.524-3.16,2.4c-1.775,1.224-3.64,2.31-5.58,3.25   c-2.44,1.25-4.91,2.44-7.37,3.66c-2.121,1.003-4.306,1.865-6.54,2.58c-0.34,0.12-0.68,0.11-0.92,0.44   c-0.08,0.11-0.46,0.14-0.47,0.13c-0.37-1.11-1.72-1.15-2.21-2s0.06-1.7,0.41-2.56c0.57-1.42,2-2.41,2-4.06   c0.188-0.19,0.343-0.41,0.46-0.65c0.56-1.93,1.12-3.86,1.6-5.8c0.14-0.57,0.49-1.21,0.05-1.82c0.706-2.422,1.152-4.913,1.33-7.43   c0-0.16,0-1.11-0.57-0.59c-1.48,1.47-3.41,2-5.24,2.7c-2.14,0.84-4.05,2.18-6.29,2.8c-1.12,0.31-2.27,0.44-3.4,0.79   c-1.063,0.446-2.169,0.781-3.3,1c-1.517,0.291-3.05,0.495-4.59,0.61c-0.577,0.08-1.134,0.27-1.64,0.56c-1.47,0.51-3,0.23-4.48,0.5   c-3.57,0.65-7.2,0.34-10.77,0.87c-0.82,0.12-1.65,0.17-2.48,0.25c-0.11-0.36-0.42-0.42-0.73-0.51c-1-0.29-1.38-1-1.86-1.92   c-0.6-1.13,0-1.92,0.14-2.86c1.345-2.206,2.473-4.537,3.37-6.96c1.14-2.73,2.84-5.17,4.23-7.77c1-1.84,2.11-3.59,3.23-5.33   c0.78-1.22,1.92-2.2,2.65-3.48c1.51-2.65,4.13-4.27,6.06-6.5c0.95-1.1,2-2,3-3.1c0.54-0.61,1.79-0.32,1.87-1.6   c-1.59,0.09-2.87-1.28-4.53-0.85c-1.153-0.16-2.29-0.418-3.4-0.77c-1.377-0.58-2.895-0.733-4.36-0.44   c-1.167-0.414-2.404-0.594-3.64-0.53c-1.301-0.046-2.604-0.009-3.9,0.11c-0.95,0.07-1.75,0.72-2.75,0.48s-1.61-0.38-1.31-1.53   c0.143-0.389-0.035-0.823-0.41-1c-0.49-0.35-1.31-1.12,0.24-1.38c0.37-0.06,0.58-0.74,0.85-1.12c1.65-2.35,3.91-4.08,6-6   s4-4,6.22-5.73c1.954-1.69,4.099-3.146,6.39-4.34c1.33-0.61,2.54-1.83,3.89-2.62c1.184-0.758,2.475-1.335,3.83-1.71   c1.06-0.354,2.053-0.881,2.94-1.56c0.832-0.713,1.813-1.232,2.87-1.52c2-0.32,3.76-1.43,5.73-1.9c1.36-0.32,2.72-0.68,4.13-1   c-0.629-0.448-1.329-0.786-2.07-1c-3.47-1.48-7-2.92-10.39-4.49c-0.789-0.326-1.637-0.486-2.49-0.47   c-1.208-0.05-2.366-0.492-3.3-1.26c-0.137-0.124-0.204-0.307-0.18-0.49c0.54-1.21,0.64-2.55,1.56-3.68c0.831-0.891,1.858-1.576,3-2   c0.971-0.444,1.974-0.815,3-1.11c1-0.3,1.79-1.15,2.84-1.49c0.38-0.12,0.77-0.22,1.15-0.33c1.443-0.386,2.865-0.847,4.26-1.38   c1.74-0.69,3.58-1,5.37-1.51c2.31-0.68,4.66-1.26,7-1.76c1.075-0.35,2.18-0.601,3.3-0.75c1.44-0.05,2.76-0.88,4.26-0.87   c0.626-0.051,1.246-0.165,1.85-0.34c0.59,1.89,0.69,3.89,1.1,5.81c0.5,2.33,1.33,4.49,2,6.72c0.103,0.581,0.13,1.172,0.08,1.76   c-0.741,0.389-1.532,0.675-2.35,0.85c-1.839,0.455-3.649,1.019-5.42,1.69c-1,0.43-2,0.93-3.06,1.41c-1.32,0.62-2.64,1.23-3,2.91   c-0.21,1-0.19,1.64,1,2c0.72,0.2,1.43,0.43,2.16,0.61c2.47,0.62,4.65,2,7.35,2.91c-1.87,0-3.11,1-4.52,1.37   c-1.967,0.666-3.869,1.513-5.68,2.53c-2.594,1.427-5.081,3.041-7.44,4.83c-1.18,0.8-1.57,2.55-3.29,2.62   c-0.14,1.44-1.63,1.7-2.37,2.64c-0.519,0.729-1.116,1.4-1.78,2c-0.43,0.35-1.18,0.44-0.76,1.29s0.69,2.36,2,2.13   c1.845-0.29,3.716-0.377,5.58-0.26c2,0.09,3.89,0.91,5.91,0.91c0.52,0,0.85,0.59,0.56,0.79c-1.37,0.94-2.13,2.54-3.53,3.41   c-1.76,1.1-2.5,3-3.63,4.51c-0.999,1.31-1.876,2.71-2.62,4.18c-0.63,1.32-1.89,2.29-2,3.89c-0.168,0.664-0.463,1.289-0.87,1.84   c-0.66,1.26-1.48,2.52-1,4.11c0.31,1,1.42,2.1,2.42,1.88c3.67-0.79,7.45-0.35,11.15-1.26c2.32-0.57,4.64-1.17,7-1.68   c0.39-0.08,0.85,0.14,1.17-0.22c1.36-1.49,3.44-1.3,5-2.32c0.79,1.17-0.13,2.13-0.18,3.16c-0.14,2.618-0.983,5.15-2.44,7.33   c-0.52,0.78-1.13,1.72-0.31,2.71c0.74,0.948,2.046,1.241,3.12,0.7c2-0.85,3.95-1.65,5.83-2.67c0.52-0.28,0.81-1,1.32-0.94   c1.48,0.19,2.51-0.87,3.4-1.54c2.36-1.78,5.22-3,7-5.58c0.79-1.18,2.3-1.66,3.15-3c0.71-1.12,1.89-2,2.63-3.25   c0.161,0.93,0.161,1.88,0,2.81c-0.018,0.947,0.093,1.893,0.33,2.81c0.257,0.669,0.155,1.423-0.27,2c-0.81,1.17-0.21,2.3,0.23,3.43   c0.063,0.21,0.251,0.358,0.47,0.37c1.86,0.088,3.672-0.604,5-1.91c0.943-1.293,1.979-2.517,3.1-3.66   c0.8-0.791,1.508-1.67,2.11-2.62c0.78-1.17,1.63-2.36,2.46-3.43C101.994,180.191,102.851,178.806,103.58,177.352z"></path>
	<path style="fill:#F2BD1E;" d="M220.65,5.962c0.63-0.9,1.66-0.73,2.54-0.88c0.76-0.213,1.542-0.338,2.33-0.37   c1.47,0.15,2.66-1,4.18-0.6c0.93,0.23,2-0.18,3-0.17c2.2,0,4.4,0.077,6.6,0.23c2.039-0.044,4.075,0.171,6.06,0.64   c2.126,0.56,4.222,1.227,6.28,2c2.9,1.27,6.18,1.69,8.74,3.75c1,0.82,2.12,1.53,3.07,2.44c0.35,0.33,0.49,0.32,0.94-0.07   c2.19-1.89,4.5-3.65,6.75-5.48c1-0.84,2-1.75,3.06-2.58c1.533-1.269,2.983-2.635,4.34-4.09c0.54-0.55,1.64-1,1.91-0.67   c0.58,0.67,1.51,1.38,1.17,2.57c-0.234,0.937-0.79,1.761-1.57,2.33c-1.91,1.37-3.32,3.36-5.26,4.6c-0.89,0.57-1.33,1.74-2.55,1.87   c-0.354,0.099-0.655,0.332-0.84,0.65c-1,1.55-2.55,2.51-3.89,3.7c-0.44,0.39-0.59,0.53-0.35,1.17   c0.316,1.045,0.795,2.034,1.42,2.93c0.745,0.961,1.316,2.043,1.69,3.2c0.77,2.018,1.438,4.074,2,6.16   c0.158,1.16,0.224,2.33,0.2,3.5c-0.012,2.014-0.213,4.023-0.6,6c-0.347,1.924-0.801,3.827-1.36,5.7   c-0.443,1.086-0.82,2.198-1.13,3.33c0.004,0.043,0.004,0.087,0,0.13c-2.09-0.06-0.22,1.71-1.08,2.39c-0.47,0.37-0.32,1.42-1.2,1.78   c-0.46,0.19-0.34,0.82-0.34,1.25c0.055,0.59-0.137,1.177-0.53,1.62l-6.83,0.54c0.08-0.76,1-0.23,0.94-0.75   c-0.73-1-1.82-0.31-2.69-0.89c-0.31-0.21-1.12,0.23-1.29-0.68c0-0.13-0.44-0.1-0.59,0.11c-0.74,1.06-1,0.67-1.07-0.34   c0.017-0.237-0.162-0.443-0.398-0.459c-0.004,0-0.008,0-0.012-0.001c-1.43-0.07-2.62-1.22-4.13-0.88l0.24-0.25   c0.22-0.38,0.26-0.62-0.3-0.76c-1.09-0.28-2.13-0.75-3.23-0.93c-0.378,0-0.74-0.156-1-0.43c-0.796-0.93-1.703-1.76-2.7-2.47   c-0.93-0.73-2.18-1-2.9-2s-1.65-1.68-2.37-2.63c-0.29-0.38-0.57-1.12-1.3-1.15h-0.06c0.29-0.41,0.31-0.92-0.22-0.94   c-1.3-0.05-1.62-1.1-2.17-1.91c-0.11-0.16,0-0.48-0.36-0.37c-1,0.3-1.08-0.8-1-1c0.21-0.79-0.35-1-0.67-1.44   c-1-1.38-2.3-2.41-3.31-3.76c-0.56-0.75-0.32-2.19-1.54-2.27s-1-0.82-1.23-1.42c-0.17-0.4,0.6-0.51,0.32-0.88   c-1.07-1.4-1.44-3.3-2.77-4.42c-0.64-0.495-0.984-1.284-0.91-2.09c0.27-1.62-0.64-2.79-1.24-4c-0.37-0.77-0.43-1.11,0.66-1.45   c-0.91,0-1.58,0-0.85-0.85s0.47-1.22-0.45-1.6s0.93-1.25-0.18-1.72c-0.205-0.061-0.416-0.102-0.63-0.12c0.33-0.68,1.39-1.11,0.77-2   S220.49,6.872,220.65,5.962z M242.79,12.092c0-2.25-2.63-3.86-4.6-3.43c-0.34,0.07-0.35,0.24-0.38,0.57   c-0.273,2.857,0.207,5.735,1.39,8.35c0.35,0.77,0.75,1.76,1.4,2.08c0.896,0.431,1.834,0.766,2.8,1c0.75,0.18,1.35-0.6,1.78-1.17   s-0.07-0.89-0.61-1.11c-0.556-0.207-0.845-0.82-0.65-1.38c-0.008-0.405-0.065-0.808-0.17-1.2   C243.71,14.392,241.68,13.492,242.79,12.092z M227.92,16.972c0.14,0.955,0.34,1.9,0.6,2.83c0.18,0.54,0.8,0.13,1.22,0.15   c0.06,0,0.13,0.11,0.17,0.18c0.58,1,1.61,0.75,2.48,0.77c1.09,0,1.59-0.62,1.1-1.59s-0.26-1.81-0.69-2.72s-1.07-1.9-0.32-3   c0.107-0.161,0.063-0.378-0.098-0.485c-0.043-0.028-0.091-0.047-0.142-0.055c-0.65-0.08-0.63-0.53-0.64-1   c0.029-0.33-0.188-0.632-0.51-0.71c-0.841-0.309-1.699-0.569-2.57-0.78c-1.17-0.2-1.51,0.23-1.32,1.46   C227.44,13.562,228.03,15.042,227.92,16.972z M252.81,12.492c0.49-1.12-0.51-1.29-0.93-1.69c-0.847-0.806-2.064-1.089-3.18-0.74   c-1.23,0.34-1.25,2.21-0.37,3.54s1.57,2.71,3.64,2.52c0.94-0.08,2.25-0.43,2.41-1.42c0-0.28-0.05-0.73-0.27-0.69   c-1.63,0.29-0.77-1.21-1.34-1.52H252.81z"></path>
	<path style="fill:#55B8CA;" d="M129.79,185.802c0.56-1.09-0.57-1.7-0.83-2.54c-0.552-1.591,0.04-3.354,1.44-4.29   c1.08-0.74,1.9-1.85,2.93-2.72c1.36-1.15,2.71-2.28,4.16-3.34s2.63-2,3.88-3c2.13-1.81,4.39-3.48,6.42-5.38c1-0.9,2.19-1.36,3-2.62   c0.67-1,2.29-1.67,3.45-2.56c1.87-1.43,4.09-2.38,5.74-4.1c0.35-0.37,0.84-0.3,1.22-0.53c1.809-1.241,3.551-2.576,5.22-4   c0.834-0.859,1.863-1.504,3-1.88c0.48-0.1,0.58-0.68,0.93-0.94c1.126-0.77,2.663-0.482,3.433,0.644   c0.191,0.279,0.323,0.594,0.387,0.926c-0.35,0.7,0.29,1.27,0.27,2c0,1.38-1,2.74-0.21,4.15c0,0.09-0.09,0.35-0.21,0.45   c-0.33,0.27-0.34,0.52-0.37,1c0,0.83,0,1.68-0.11,2.52c-0.13,1.35-0.76,2.64-0.81,3.94c0.015,3.472-0.32,6.936-1,10.34   c-0.53,2.18-0.84,4.4-2.37,6.28c-1.72,2.12-3.87,3.82-5.49,6c-0.7,1-1.88,1.6-2.52,2.7s-1.94,1.79-2.89,2.69s-2.22,1.63-2.79,2.74   c-1,2-2.91,3.19-4.25,4.88c-0.949,0.964-1.991,1.831-3.11,2.59c-1.29,1.08-2.33,2.47-4,3.09c-0.39,0.15-0.31,0.54-0.53,0.74   c-1.3,1.14-2.43,2.55-4.38,2.61c-2.29-1.81-2.81-4.52-3.86-7s-1.87-5.08-3-7.55c-0.857-1.558-1.449-3.248-1.75-5   C130.853,187.599,130.493,186.575,129.79,185.802z"></path>
	<path style="fill:#55B8CA;" d="M115.37,73.182c0.92,0.22,0.75,1.16,1.14,1.68c0.92,1.24-0.26,1.25-0.77,1.61s-0.38,0.88-0.63,1.3   c-1,1.78-3,2.54-4.2,4.08c-0.88,1.11-2.27,1.52-3.14,2.85c-0.63,1-2.26,1.67-3.13,2.66c-1.23,1.4-2.87,2.28-4.07,3.71   c-0.34,0.41-0.77,1.81-2,1.18c-0.13-0.07-0.56,0.26-0.73,0.49c-0.569,0.75-1.314,1.348-2.17,1.74   c-0.386,0.132-0.715,0.394-0.93,0.74c-0.235,0.814-1.031,1.333-1.87,1.22c-0.59,0-0.06,0.59-0.59,0.82   c-1.159,0.665-2.275,1.403-3.34,2.21c-1.83,1.1-3.67,2.23-5.4,3.51c-1.37,1-2.41,2.39-3.66,3.47c-1.339,1.272-2.77,2.446-4.28,3.51   c-1.12,0.71-1.94,1.8-3.43,2c-0.453,0.118-0.935,0.014-1.3-0.28c-0.859-0.908-2.016-1.476-3.26-1.6c-0.39-0.1-1-0.09-0.91-0.77   c0.036-0.023,0.07-0.05,0.1-0.08c0,0,0-0.05,0-0.08l-0.08,0.18l-2.94-1.24c-1.68-0.952-3.256-2.078-4.7-3.36   c-0.78-0.69-2.21-1-2.39-2.33c-0.031-0.085-0.102-0.149-0.19-0.17c-2.57-0.19-3.56-2.53-5.3-3.86   c-0.096-0.097-0.212-0.173-0.34-0.22c-1.34-0.23-2-0.71-0.68-1.88c0,0,0-0.18,0-0.27c0.1-0.461,0.531-0.772,1-0.72   c0.37,0,0.68-0.16,0.61-0.65c-0.14-0.94,0.44-1.41,1.15-1.88c1.12-0.73,2.57-0.92,3.51-1.88c0.818-0.806,1.8-1.427,2.88-1.82   c1.71-0.66,3-2,4.53-2.77c0.85-0.43,1.18-1.92,2.58-1.28c0.19,0.09,0.21-0.23,0.31-0.36c2.09-2.66,5.3-3.8,7.89-5.78   c1.049-0.801,2.179-1.491,3.37-2.06c1-0.46,1.73-1.26,2.74-1.62c1.056-0.465,2.062-1.038,3-1.71c0.66-0.41,0.89-1.58,1.54-1.37   c0.94,0.31,1.33-0.28,1.87-0.64c0.444-0.365,1.023-0.522,1.59-0.43c0.38,0.08,0.48,0,0.8-0.3c0.757-0.677,1.758-1.013,2.77-0.93   c1.89,0.51,3.82-0.11,5.65,0.48c0.043,0.009,0.087,0.009,0.13,0c1.23-0.2,2.41-0.66,3.67,0.1s3.11,0.76,4.68,1   c1.83,0.27,3.42,1.68,5.41,1.1c0.043-0.012,0.087-0.012,0.13,0c0.886,0.202,1.792,0.303,2.7,0.3l0,0   C114.79,73.142,115.05,73.212,115.37,73.182z"></path>
	<path style="fill:#F2BD1E;" d="M139.44,208.132c1.94-0.05,3.08-1.47,4.38-2.61c0.22-0.19,0.14-0.59,0.53-0.74   c1.64-0.62,2.68-2,4-3.09c1.119-0.759,2.161-1.626,3.11-2.59c1.34-1.69,3.22-2.87,4.25-4.88c0.57-1.11,1.85-1.85,2.79-2.74   s2.21-1.52,2.89-2.69s1.83-1.74,2.52-2.7c1.62-2.23,3.77-3.93,5.49-6c1.53-1.88,1.84-4.1,2.37-6.28c0.68-3.404,1.015-6.868,1-10.34   c0-1.31,0.69-2.59,0.81-3.94c0.08-0.84,0.06-1.69,0.11-2.52c0-0.45,0-0.7,0.37-1c0.12-0.1,0.26-0.36,0.21-0.45   c-0.8-1.42,0.19-2.77,0.21-4.15c0-0.73-0.63-1.3-0.27-2c1.34,0.89,2.39,2.18,3.88,2.87c2.57,2.09,2.34,4.82,2,7.73   c-0.28,2.46,0,5-0.08,7.48c-0.06,2.34,0.53,4.66-0.13,7.06c-0.129,1.004-0.061,2.022,0.2,3c0.214,1.087,0.022,2.215-0.54,3.17   c-0.74,1.06-0.86,2.77-2.57,3c-0.07,0-0.15,0.11-0.19,0.19c-1.15,2.2-3.36,3.5-4.72,5.48c-0.93,1.37-2,2.63-3,3.9   c-0.75,0.94-1.25,2.22-2.62,2.87c-1,0.45-1.5,1.89-2.13,2.95c-0.646,1.022-1.505,1.892-2.52,2.55c-0.729,0.656-1.399,1.375-2,2.15   c-0.87,0.91-1.85,1.69-2.72,2.54c-1.32,1.27-3,2.24-4,3.87c-0.386,0.901-1.411,1.34-2.33,1c-1.694-0.327-3.408-0.538-5.13-0.63   c-0.49-0.06-1.16,0.25-1.3-0.6c0-0.06-0.23-0.17-0.31-0.14c-1.44,0.57-2.44-0.05-3.35-1.13   C140.39,208.402,139.85,208.322,139.44,208.132z"></path>
	<path style="fill:#F2BD1E;" d="M114.7,72.802c-0.908,0.003-1.814-0.098-2.7-0.3c-0.043-0.012-0.087-0.012-0.13,0   c-2,0.59-3.58-0.83-5.41-1.1c-1.57-0.23-3.28-0.15-4.68-1s-2.44-0.29-3.67-0.1c-0.043,0.009-0.087,0.009-0.13,0   c-1.83-0.6-3.76,0-5.65-0.48c-0.99-0.097-1.978,0.21-2.74,0.85c-0.32,0.3-0.42,0.38-0.8,0.3c-0.567-0.092-1.146,0.065-1.59,0.43   c-0.54,0.37-0.92,0.95-1.87,0.64c-0.64-0.21-0.88,1-1.54,1.37c-0.938,0.672-1.944,1.245-3,1.71c-1,0.37-1.77,1.16-2.74,1.62   c-1.197,0.587-2.33,1.298-3.38,2.12c-2.59,2-5.8,3.12-7.89,5.78c-0.1,0.13-0.12,0.45-0.31,0.36c-1.4-0.63-1.72,0.85-2.58,1.28   c-1.58,0.8-2.82,2.1-4.53,2.77c-1.08,0.393-2.062,1.014-2.88,1.82c-0.94,1-2.39,1.15-3.51,1.88c-0.71,0.46-1.29,0.93-1.15,1.88   c0.08,0.49-0.24,0.64-0.61,0.65c-0.469-0.052-0.9,0.259-1,0.72c-0.72-0.16-0.86-1.1-0.9-1.36c-0.28-2-0.31-4.09-0.44-6.14   c0.043-0.604,0.434-1.127,1-1.34c1.88-0.89,2.84-2.78,4.53-3.87c2.944-1.806,5.788-3.768,8.52-5.88c2-1.64,4.38-2.75,6.51-4.21   c1.91-1.3,3.86-2.56,5.88-3.68c1-0.53,1.92-1.11,2.91-1.57c1.087-0.444,2.024-1.19,2.7-2.15c0.259-0.443,0.762-0.684,1.27-0.61   c3.64,0.34,7.29,0.5,10.91,0.87c1.95,0.2,4,0.59,5.91,0.81c2.62,0.3,5.17,1.11,7.81,1.16c0.761,0.097,1.502,0.32,2.19,0.66   c1.22,0.78,2.79,0.65,4,1.6C113.88,70.875,114.487,71.777,114.7,72.802z"></path>
	<path style="fill:#E86367;" d="M213.18,7.452c0.06,0.64-0.1,1-0.78,0.55L213.18,7.452z"></path>
	<path style="fill:#183848;" d="M34.53,227.892c0.076-0.054,0.102-0.156,0.06-0.24l0.12,0.18L34.53,227.892z"></path>
	<path style="fill:#55B8CA;" d="M103.58,177.352c-0.764,1.408-1.651,2.747-2.65,4c-0.83,1.07-1.68,2.26-2.46,3.43   c-0.602,0.95-1.31,1.829-2.11,2.62c-1.121,1.143-2.157,2.367-3.1,3.66c-1.328,1.306-3.14,1.998-5,1.91   c-0.219-0.012-0.407-0.16-0.47-0.37c-0.45-1.13-1-2.26-0.23-3.43c0.425-0.577,0.527-1.331,0.27-2   c-0.237-0.917-0.348-1.863-0.33-2.81c0.161-0.93,0.161-1.88,0-2.81c-0.73,1.23-1.92,2.13-2.63,3.25c-0.86,1.36-2.36,1.84-3.15,3   c-1.75,2.62-4.61,3.79-7,5.58c-0.88,0.67-1.91,1.74-3.4,1.54c-0.51-0.07-0.8,0.66-1.32,0.94c-1.89,1-3.88,1.82-5.83,2.67   c-1.074,0.541-2.38,0.248-3.12-0.7c-0.82-1-0.2-1.92,0.31-2.71c1.457-2.18,2.3-4.712,2.44-7.33c0.05-1,1-2,0.18-3.16   c-1.52,1-3.6,0.83-5,2.32c-0.33,0.36-0.78,0.13-1.17,0.22c-2.34,0.51-4.67,1.11-7,1.68c-3.7,0.91-7.48,0.47-11.15,1.26   c-1,0.22-2.12-0.86-2.42-1.88c-0.47-1.59,0.34-2.84,1-4.11c0.407-0.551,0.702-1.176,0.87-1.84c0.13-1.6,1.39-2.57,2-3.89   c0.744-1.47,1.621-2.87,2.62-4.18c1.13-1.56,1.88-3.42,3.63-4.51c1.4-0.87,2.15-2.47,3.53-3.41c0.29-0.2,0-0.79-0.56-0.79   c-2,0-3.89-0.82-5.91-0.91c-1.864-0.117-3.735-0.03-5.58,0.26c-1.35,0.23-1.58-1.19-2-2.13s0.33-0.94,0.76-1.29   c0.664-0.6,1.261-1.271,1.78-2c0.74-0.94,2.23-1.21,2.37-2.64c1.72-0.07,2.11-1.82,3.29-2.62c2.359-1.789,4.846-3.403,7.44-4.83   c1.811-1.017,3.713-1.864,5.68-2.53c1.41-0.39,2.64-1.34,4.52-1.37c-2.69-0.93-4.87-2.29-7.35-2.91c-0.73-0.18-1.44-0.41-2.16-0.61   c-1.15-0.33-1.17-1-1-2c0.36-1.67,1.69-2.29,3-2.91c1-0.48,2-1,3.06-1.41c1.771-0.671,3.581-1.235,5.42-1.69   c0.818-0.175,1.609-0.461,2.35-0.85c0.528,0.356,0.855,0.943,0.88,1.58c0.078,0.632,0.316,1.234,0.69,1.75   c1.62,2.48,2.62,5.33,4.23,7.77c1,1.54,2.36,3,3.35,4.54s2.16,2.68,2.86,4.3c0.406,0.887,1.032,1.655,1.82,2.23   c0.829,0.592,1.513,1.365,2,2.26c0.67,1.36,1.79,2.29,2.58,3.52c0.759,1.104,1.711,2.063,2.81,2.83c1.5,1.1,2.45,2.73,3.91,3.83   c0.85,0.64,2.25,1.49,2.32,2c0.26,1.83,2.74,0.82,2.77,2.54c2.53,0.52,3.83,2.89,6,4C102.75,176.602,103.08,177.122,103.58,177.352   z"></path>
	<path style="fill:#55B8CA;" d="M139.67,118.802c0.426,0.562,0.763,1.186,1,1.85c0.4,1.39-0.75,2.17-1.26,3.18   c-0.298,0.891-1.071,1.54-2,1.68c-0.38,0-0.32,0.35-0.4,0.6s-0.27,0.65-0.42,0.66c-1.39,0-2,1.25-2.85,2c-2,1.82-4.5,3-6.52,4.8   c-1.58,1.44-3.63,2.35-5.36,3.65c-1.22,0.91-2.54,1.67-3.71,2.69c-0.913,0.617-1.889,1.136-2.91,1.55   c-0.28,0.15-0.67,0.17-0.86,0.38c-2,2.24-5,3.16-7.13,5.22c-1.313,1.254-2.75,2.369-4.29,3.33c-1.53,1-2.5,2.59-4.25,3.19   c-0.47,0.16-0.47,0.76-0.77,1.09c-1,1.05-2.33,1.67-3.28,2.79c-0.4,0.48-0.94,0.21-1.25-0.29c-0.93-1.48-2.52-2-3.9-2.83   c-1.85-1.15-3.92-1.87-5.7-3.06c-1.028-0.731-1.51-2.012-1.22-3.24c0.6-0.24,1.15-0.39,1.27-1.28c0-0.39,0.23-1.38,0.85-1.39   c1.65,0,2-1.79,3.4-2.23c1.115-0.537,2.08-1.341,2.81-2.34c0.94-0.754,1.922-1.455,2.94-2.1c1.223-1.088,2.519-2.09,3.88-3   c1-0.6,2.31-1.14,2.81-2c1.12-1.85,3.06-2.6,4.58-3.76c1.91-1.45,3.93-2.85,5.93-4.22c1.23-0.873,2.399-1.829,3.5-2.86   c0.55-0.5,0.69-1.63,1.84-1c0,0,0.15-0.09,0.22-0.15c3-2.16,6.51-2.84,10-3.59c1.55-0.33,3.22-0.08,4.75-0.39   c2.175-0.349,4.397-0.267,6.54,0.24C138.59,118.142,139.27,118.122,139.67,118.802z"></path>
	<path style="fill:#F2BD1E;" d="M139.67,118.802c-0.41-0.66-1.09-0.64-1.74-0.77c-2.143-0.507-4.365-0.589-6.54-0.24   c-1.53,0.3-3.2,0.05-4.75,0.39c-3.48,0.75-7,1.44-10,3.59c-0.07,0.05-0.18,0.17-0.22,0.15c-1.16-0.59-1.29,0.54-1.84,1   c-1.101,1.031-2.27,1.987-3.5,2.86c-2,1.37-4,2.77-5.93,4.22c-1.52,1.15-3.46,1.9-4.58,3.76c-0.5,0.83-1.83,1.36-2.81,2   c-1.361,0.91-2.657,1.912-3.88,3c-1.024,0.625-2.012,1.306-2.96,2.04c-0.726,0.972-1.676,1.754-2.77,2.28   c-1.37,0.43-1.75,2.21-3.4,2.23c-0.62,0-0.8,1-0.85,1.39c-0.11,0.89-0.66,1-1.27,1.28c-1.27-0.4-1.7-1.1-1.77-2.58   c0-0.81-0.87-2-1.32-3c-0.22-0.5-0.43-1-0.62-1.5c-0.06-0.15-0.12-0.44-0.06-0.49c1.41-1,1.71-3,3.45-3.74   c1.09-0.49,1.6-1.85,2.68-2.45c1.71-0.94,2.62-2.68,4-3.89c0.9-0.76,2.08-1.4,2.79-2.15c0.71-0.75,1.9-1.34,2.69-2.17   c0.489-0.464,1.003-0.902,1.54-1.31c2-1.72,4-3.47,5.93-5.26c0.827-0.721,1.602-1.5,2.32-2.33c1.05-1.29,2.71-1,4.08-1.32   c1.696-0.4,3.412-0.714,5.14-0.94c1-0.17,2.34-0.08,3.09-0.52c0.93-0.54,1.81-0.23,2.67-0.56c1.681-0.486,3.44-0.639,5.18-0.45   c1.063-0.044,2.116-0.212,3.14-0.5c2.06-0.43,4.11-0.91,6.2-1.19c0.875-0.061,1.725,0.313,2.27,1   C137.86,114.256,139.133,116.415,139.67,118.802z"></path>
	<path style="fill:#F2BD1E;" d="M115.37,73.182c-0.32,0-0.59,0-0.68-0.4C115.06,72.672,115.24,72.892,115.37,73.182z"></path>
	<path style="fill:#E86367;" d="M242.79,12.092c-1.11,1.4,0.92,2.3,1,3.7c0.105,0.392,0.162,0.795,0.17,1.2   c-0.184,0.549,0.092,1.146,0.63,1.36c0.54,0.21,1,0.6,0.61,1.11s-1,1.35-1.78,1.17c-0.966-0.234-1.904-0.569-2.8-1   c-0.65-0.32-1.05-1.31-1.4-2.08c-1.183-2.615-1.663-5.493-1.39-8.35c0-0.33,0-0.49,0.38-0.57   C240.15,8.232,242.76,9.802,242.79,12.092z M239.24,16.382c0,0-0.06-0.07-0.09-0.07s-0.06,0-0.09,0.07s0.05,0.08,0.08,0.08   s0.06-0.04,0.1-0.07V16.382z"></path>
	<path style="fill:#E86367;" d="M227.92,16.972c0.15-1.93-0.45-3.41-0.69-4.94c-0.2-1.23,0.14-1.66,1.32-1.46   c0.871,0.211,1.729,0.471,2.57,0.78c0.322,0.078,0.539,0.38,0.51,0.71c0,0.47,0,0.91,0.64,1c0.191,0.028,0.323,0.206,0.295,0.398   c-0.008,0.051-0.026,0.1-0.055,0.142c-0.75,1.08-0.06,2.17,0.32,3s0.25,1.85,0.69,2.72s0,1.63-1.1,1.59c-0.87,0-1.9,0.26-2.48-0.77   c0-0.07-0.11-0.18-0.17-0.18c-0.42,0-1,0.39-1.22-0.15C228.279,18.88,228.069,17.931,227.92,16.972z"></path>
	<path style="fill:#E86367;" d="M252.77,12.492c0.56,0.34-0.29,1.8,1.3,1.52c0.22,0,0.31,0.42,0.27,0.69   c-0.16,1-1.48,1.33-2.41,1.42c-2.08,0.19-2.74-1.16-3.64-2.52s-0.86-3.2,0.37-3.54c1.116-0.349,2.333-0.066,3.18,0.74   C252.26,11.202,253.26,11.372,252.77,12.492z"></path>
	<path style="fill:#E86367;" d="M66.69,109.332l0.08-0.18c0,0,0,0.06,0,0.08c-0.03,0.03-0.064,0.057-0.1,0.08L66.69,109.332z"></path>
	<path style="fill:#5AB7C6;" d="M266.18,54.912l-6.83,0.54c0.08-0.76,1-0.23,0.94-0.75c-0.73-1-1.82-0.31-2.69-0.89   c-0.31-0.21-1.12,0.23-1.29-0.68c0-0.13-0.44-0.1-0.59,0.11c-0.74,1.06-1,0.67-1.07-0.34c0.017-0.237-0.162-0.443-0.398-0.459   c-0.004,0-0.008,0-0.012-0.001c-1.43-0.07-2.62-1.22-4.13-0.88c-0.26,0-0.41-0.19-0.36-0.45c0-0.1,0.15-0.24,0.23-0.25   c0.3,0,0.31,0.25,0.38,0.46c0.22-0.38,0.26-0.62-0.3-0.76c-1.09-0.28-2.14-0.75-3.23-0.93c-0.378,0-0.74-0.156-1-0.43   c-0.788-0.903-1.681-1.709-2.66-2.4c-0.93-0.73-2.18-1-2.9-2s-1.65-1.68-2.37-2.63c-0.29-0.38-0.57-1.12-1.3-1.15l-0.15,0.48   c-0.06,0-0.15-0.09-0.17-0.15c-0.05-0.152,0.032-0.316,0.184-0.366c0.021-0.007,0.043-0.012,0.066-0.014   c0.29-0.41,0.31-0.92-0.22-0.94c-1.3-0.05-1.62-1.1-2.17-1.91c-0.11-0.16,0-0.48-0.36-0.37c-1,0.3-1.08-0.8-1-1   c0.21-0.79-0.35-1-0.67-1.44c-1-1.38-2.3-2.41-3.31-3.76c-0.56-0.75-0.32-2.19-1.54-2.27s-1-0.82-1.23-1.42   c-0.17-0.4,0.6-0.51,0.32-0.88c-1.07-1.4-1.44-3.3-2.77-4.42c-0.64-0.495-0.984-1.284-0.91-2.09c0.27-1.62-0.64-2.79-1.24-4   c-0.37-0.77-0.43-1.11,0.66-1.45c-0.91,0-1.58,0-0.85-0.85s0.47-1.22-0.45-1.6s0.93-1.25-0.18-1.72   c-0.205-0.061-0.416-0.102-0.63-0.12c0.33-0.68,1.39-1.11,0.77-2s-0.25-1.81-0.09-2.72c-1.08-0.42-2,0.16-3,0.39   c-0.51,0.11-0.93,0.42-1.49,0.52c-1,0.18-2.12-0.25-2.95,0.58c0.06,0.64-0.1,1-0.78,0.55l-0.27-0.3c0.34,1.15,0,2.62,1.54,3.21   c0.013,0.112-0.004,0.226-0.05,0.33c-0.7,0.11-0.17,0.36-0.13,0.63c0.13,1,0.42,1.93,0.53,2.87c0.23,1.84,0.53,3.67,0.79,5.51   c0.09,0.64,0.87,0.94,0.75,1.29c-0.49,1.36,0.75,2.16,1,3.3c0.26,1.31,1.59,2.36,2,3.78c0.18,0.62,0.71,0.46,1,0.66   c0.61,0.38-0.78,0.71-0.29,1.32c0,0,0,0.09,0.06,0.12c1.156,1.093,2.001,2.474,2.45,4c0.56,1.88,3,2.21,3.47,4.3   c0.214,0.884,0.973,1.53,1.88,1.6c0,2.23,2.4,2.85,3.15,4.61c0.356,0.785,0.898,1.472,1.58,2c1.55,1.2,2.9,2.63,4.4,3.88   c1.25,1,2.44,2.46,3.84,3c1.69,0.65,2.75,2.58,4.82,2.3c0.42,1,1.66,0.37,1.89,0.62c0.816,0.979,1.947,1.644,3.2,1.88   c1.63,0.3,2.89,1.5,4.46,2c2.51,0.86,5.17,1.06,7.67,1.89l3.71-7.3l-0.1-0.18l0.19,0.09L266.18,54.912z"></path>
	<path style="fill:#F2BD1E;" d="M250.13,51.552c-0.26,0-0.41-0.19-0.36-0.45c0-0.1,0.15-0.24,0.23-0.25c0.3,0,0.31,0.25,0.38,0.46   L250.13,51.552z"></path>
	<path style="fill:#F2BD1E;" d="M236.6,40.992l-0.15,0.48c-0.06,0-0.15-0.09-0.17-0.15c-0.05-0.152,0.032-0.316,0.184-0.366   c0.021-0.007,0.043-0.012,0.066-0.014L236.6,40.992z"></path>
	<path style="fill:#FFFFFE;" d="M265.86,55.562l-0.1-0.18l0.19,0.09L265.86,55.562z"></path>
	<path style="fill:#E86367;" d="M168.19,39.802c0.2,1-0.91,1.38-1.08,2.21c0,0.07-0.22,0.13-0.33,0.13   c-1.027,0.037-1.845,0.872-1.86,1.9c-0.073,0.809-0.39,1.576-0.91,2.2c-0.26,0.32-0.68,0.64-0.23,1.18   c0.32,0.38-0.17,0.48-0.36,0.7c-1.11,1.33-2.54,2.5-1.8,4.63c0.18,0.52-0.27,1.26-0.47,1.89s-0.66,1-0.16,1.63   c0,0.06,0.08,0.22,0,0.24c-1.23,0.91-0.87,2.56-1.66,3.59c-0.385,0.413-0.519,1.001-0.35,1.54c0.11,0.46,0.3,1-0.54,1.08   c-0.1,0-0.2,0.11-0.29,0.17c0.94,0.56-0.2,1.48,0.31,2s0.17,1,0,1.36c-0.862,1.99-0.785,4.263,0.21,6.19   c0.26,0.49-0.66,1.08-0.06,1.58c1.1,0.92,0.92,2.14,0.85,3.32c-0.025,0.273,0.106,0.537,0.34,0.68   c0.553,0.431,0.828,1.128,0.72,1.82c-0.166,0.996,0.414,1.966,1.37,2.29c0.42,0.2,0.67,0.39,0.26,0.77s-0.11,0.87,0.1,1.3   c0.32,0.63,1.19,1.16,0.43,2c-0.06,0.06,0,0.25,0.05,0.38c1.74-0.35,0.76,1.28,1.24,1.88c0.581,0.971,1.437,1.747,2.46,2.23   c1,0.38,1.07,1.67,1.43,2.62c0.08,0.2-0.06,0.57,0.05,0.64c1.55,1,2,3.44,4.35,3.46c0.149-0.007,0.276,0.107,0.283,0.256   c0.002,0.043-0.006,0.085-0.023,0.124c-0.66,1.32,0.51,1.26,1.17,1.58c1.075,0.38,2.009,1.078,2.68,2   c0.12,0.21,0.13,0.43,0.44,0.27c0.54-0.27,0.88-0.13,1,0.49c0,0.26,0.13,0.4,0.45,0.29c1-0.35,1.36-0.16,1.55,0.91   c0.012,0.231,0.175,0.427,0.4,0.48c1.6,0.34,2.83,1.71,4.37,1.89c1.36,0.16,2.43,0.91,3.7,1.09c0.35,0,0.68,0.12,0.82,0.37   c0.39,0.74,0.79,0.29,1.19,0.07c1.05-0.58,1.78-0.27,2,0.94c0.08,0.38,0.34,0.72,0.59,0.54c1.24-0.88,2.63,0.93,3.84-0.29   c0.28-0.29,0.58,0.09,0.83,0.26s0.84,0.49,1.13,0.17c0.56-0.62,1,0,1.45,0c1.1,0,2.31,0.28,3.33-0.41   c0.27-0.18,0.47-0.47,0.82-0.18c1,0.84,1.59,0,2.23-0.55c0.28-0.23,0.46-0.57,0.89-0.49c0.27,0,0.34,0.26,0.38,0.5   c0.09,0.52-0.31,0.78-0.64,0.95c-1.557,0.911-3.198,1.671-4.9,2.27c-1.87,0.52-3.57,1.43-5.44,2c-1.783,0.373-3.599,0.56-5.42,0.56   c-2.83,0.21-5.58-0.62-8.37-0.83c-1.37-0.1-2.56-0.69-3.92-0.75c-0.9,0-1.61-1-2.7-1c-1.045-0.009-2.053-0.384-2.85-1.06   c-2.39-1.85-5.16-3.12-7.32-5.35c-1.3-1.35-3.11-2.24-4.28-3.82c-0.105-0.225-0.373-0.322-0.598-0.217   c-0.033,0.015-0.064,0.035-0.092,0.057c-0.25,0.16-0.55,0-0.44-0.21c0.67-1.39-0.6-1.87-1.26-2.46c-1.265-1.267-2.282-2.759-3-4.4   c-0.136-0.281-0.33-0.53-0.57-0.73c-0.55-0.45-1.35-0.75-1.27-1.7c0-0.09-0.16-0.23-0.27-0.29c-2-1.11-1.77-3.28-2.36-5.05   c-0.133-0.428-0.297-0.846-0.49-1.25c-1.16-2.29-0.93-4.85-1.39-7.27c-0.038-0.277-0.108-0.549-0.21-0.81   c-0.434-0.968-0.579-2.041-0.42-3.09c0.23-1.59,0.22-3.27,0.33-4.88c0.09-1.3-0.15-2.81,0.83-4c0.135-0.181,0.218-0.395,0.24-0.62   c0.369-1.874,1.027-3.679,1.95-5.35c0.756-1.944,1.718-3.801,2.87-5.54c1-1.31,1.18-3.28,3-4c1.24-0.51,1.52-1.95,2-3.09   c0.11-0.24,0-0.6,0.34-0.7c1.7-0.56,2.39-2.45,3.77-3.11c1.22-0.58,2.12-1.53,3.3-2.07L168.19,39.802z"></path>
	<path style="fill:#E86367;" d="M168.21,39.862c0.24-0.76,0.5-1.49,1.4-1.74c0.16,0,0.07-0.31,0-0.46l0,0   c0.56,0.72,0.56,0.72,1.26-0.52c0.07,2-1.62,2-2.65,2.71L168.21,39.862z"></path>
	<path style="fill:#E86367;" d="M221.12,46.482c0.05,0,0.17,0.11,0.16,0.15s-0.08,0.3-0.17,0.35c-0.25,0.12-0.14-0.14-0.16-0.22   S220.92,46.492,221.12,46.482z"></path>
	<polygon style="fill:#E86367;" points="169.59,37.662 169.55,37.632 169.58,37.662  "></polygon>
	<path style="fill:#55B8CA;" d="M190.16,101.352c0.21-0.07,0.28,0.06,0.33,0.22l-0.09,0.09l-0.22-0.33L190.16,101.352z"></path>
	<path style="fill:#55B8CA;" d="M190.48,101.572c0.12,0,0.29,0.09,0.17,0.22s-0.22,0-0.26-0.13L190.48,101.572z"></path>
	<polygon style="fill:#E86367;" points="166.73,110.502 166.75,110.602 166.67,110.582  "></polygon>
	<path style="fill:#E86367;" d="M178.38,32.162l0.16,0.15c-0.15,0.14-0.19,0-0.22-0.09L178.38,32.162z"></path>
	<path style="fill:#F2BD1E;" d="M239.24,16.392c0,0-0.07,0.08-0.1,0.08s-0.06-0.05-0.08-0.08s0.06-0.07,0.09-0.07   S239.21,16.362,239.24,16.392z"></path>
	<path style="fill:#183848;" d="M166.79,53.132l-0.1,0.09c-0.027-0.078-0.047-0.158-0.06-0.24c0,0,0-0.07,0.08-0.1L166.79,53.132z"></path>
	<path style="fill:#183848;" d="M231.15,71.202c-0.367-1.515-0.529-3.072-0.48-4.63c-0.08-1.157-0.264-2.305-0.55-3.43   c-0.19-1.08-0.8-2.15-0.71-3.34c0.03-0.4-0.3-0.94-0.4-0.86c-0.97,0.77-0.98-0.41-1.49-0.61c1.14-0.67,1.2-1.71,0.45-2.8   c-0.59-0.718-0.94-1.603-1-2.53c0.002-0.006,0.003-0.013,0.005-0.019c0.17-0.692-0.253-1.391-0.945-1.561   c-1.41-0.39-1.25-1.84-1.51-2.59s-0.15-0.85-0.78-0.7s-0.84-0.04-0.54-0.59c0.3-0.55,0.08-0.96-0.42-0.65   c-1.16,0.75-0.73-0.14-1-0.72c-0.27-0.58,0.05-1.69-1.46-1.46c-0.78,0.11-2.5-1.11-2.32-1.7c0.54-1.77-1.58-1.08-1.58-2.08   c-1.05,0.04-1.47-0.68-1.89-1.48c-0.27-0.5-0.88-1.01-1.35-0.89c-1.018,0.282-2.103-0.121-2.69-1c-0.24-0.3-0.57-1.68-1.47-0.3   c-0.28,0.43-0.71-0.3-0.71-0.75c0.061-0.395,0.158-0.783,0.29-1.16c0.12-0.54-0.34-0.73-0.67-0.9c-0.48-0.26-0.58,0.07-0.48,0.5   c-0.067,0.09-0.168,0.148-0.28,0.16c-1.27-0.25-2.4-1.13-3.82-0.75c-0.32,0.07-0.39-0.32-0.32-0.62c-0.68,0.05-0.74-1.16-1.24-0.87   c-0.75,0.45-1.13-0.02-1.75-0.22c-1.06-0.34-2.01-1.39-3.31-0.77c-0.227,0.077-0.476-0.015-0.6-0.22   c-0.71-0.819-1.77-1.247-2.85-1.15c-1.45-0.04-2.96,0.42-4.4-0.22c-0.14-0.07-0.76-0.25-0.9,0.3c-0.08,0.34-0.11,0.33-0.54,0.2   c-0.43-0.13-0.61-1.52-1.43-0.28c-0.42,0.65-1.1-0.97-1.7-0.19c-0.6,0.78-0.53-0.79-0.87-0.22c-0.51,0.83-0.94,1-2,1   c-1.114-0.021-2.198,0.355-3.06,1.06l0.15,0.14c-0.15,0.15-0.22,0.05-0.22-0.09c-0.87-0.32-1.86,0.76-2.68-0.24   c-0.03-0.03-0.18,0.05-0.25,0.05c-0.87,0.59-1.99,0.82-2.87,1.37c-1.12,0.7-2.54,0.96-3.33,2.16c-0.06,0.14-0.28,0.14-0.35,0.14   c-1.21-0.68-1.86,0.58-2.53,1c-1.593,1.132-3.076,2.411-4.43,3.82c-0.48,0.44-1.28,0.02-1.61,0.82c-0.446,1.221-1.265,2.27-2.34,3   c-0.531,0.393-0.976,0.89-1.31,1.46c-0.71,0.92-1.35,1.9-2.14,2.75c-1.06,1.14-1.83,2.49-2.83,3.68c-1.44,1.71-1.95,4.01-2.66,6.13   c-0.2,0.63-0.89,0.8-1,1.63c-0.16,1.63-1.66,3.01-1,4.87c-1.25,1.22-0.46,3.01-1.19,4.35c-0.39,0.7,0.51,1.06,0.29,1.52   c-1.19,2.43-0.4,5.03-0.74,7.53c-0.08,0.57,0.66,1.43,0.44,1.75c-0.72,1.07,0.63,2,0,3c1.3,2.04,1.05,4.61,2.36,6.72   c0.576,0.711,0.967,1.552,1.14,2.45c0.091,1.006,0.534,1.948,1.25,2.66c0.37,0.389,0.705,0.811,1,1.26   c1.04,1.71,1.77,3.66,3.54,4.89c0.35,0.24,1,0.68,1,1.3c-0.07,1.11,0.7,1.47,1.45,1.92c1.541,1,3.008,2.11,4.39,3.32   c2.91,2.38,5.46,4.21,8.75,5.29c0.47,0.15,1.19,0.2,1.31,1c0.05,0.33,0.45,0.38,0.77,0.46c1.15,0.29,2.36,0.23,3.36,1.23   c0.34,0.373,0.826,0.577,1.33,0.56c2.15-0.5,3.96,1.07,6.07,0.92c1.43-0.1,2.89,0.2,4.33,0.2c1.22,0,2.45-0.38,3.65,0.2   c0.242,0.131,0.528,0.157,0.79,0.07c1.63-1.03,3.61-0.38,5.26-0.83c1.65-0.45,3.37-0.76,5.05-1.18   c0.761-0.338,1.551-0.606,2.36-0.8c1.431,0.101,2.827-0.468,3.78-1.54c0.135-0.201,0.408-0.255,0.61-0.12   c0.56,0.4,0.99-0.04,1.37-0.28c1.77-1.09,2.86-2.92,4.77-3.92c1.75-0.88,2.55-3.11,4.55-3.88c0.27-0.09,0.18-0.37,0.27-0.55   c0.47-0.93,0.86-2.18,1.86-2.4c1.38-0.32,0.54-2.25,1.95-2.25c-0.011-0.087-0.038-0.172-0.08-0.25c-0.61-0.72-0.03-1,0.5-1.11   c0.028-0.003,0.056-0.008,0.084-0.014c0.448-0.097,0.733-0.538,0.636-0.986c-0.01-0.86,0.276-1.697,0.81-2.37   c0.32-0.509,0.451-1.114,0.37-1.71c-0.31,0.355-0.317,0.352-0.01,0c0.51-0.39,0.79-0.82,0.32-1.42c-0.21-0.29-0.21-0.33,0-0.04   c0.22-0.34,0.37-0.82,1-0.41c0.31,0.2,0.69-0.06,0.5-0.48c-0.64-1.42,0.66-2.32,0.9-3.5c0.2-0.95,1.64-1.53,0.82-2.87   c-0.124-0.736,0.057-1.49,0.5-2.09c1.06-1.23,0.94-1.68,0.06-2.38c0.2-0.29,0.85-0.08,0.71-0.87   c-0.284-1.296-0.225-2.644,0.17-3.91C231.742,73.938,231.658,72.506,231.15,71.202z M207.17,108.702   c-1.557,0.911-3.198,1.672-4.9,2.27c-1.87,0.56-3.57,1.47-5.44,2c-1.783,0.372-3.599,0.56-5.42,0.56   c-2.83,0.17-5.58-0.63-8.37-0.83c-1.37-0.1-2.56-0.69-3.92-0.75c-0.9-0.09-1.62-1.08-2.7-1c-1.045-0.009-2.053-0.384-2.85-1.06   c-2.39-1.84-5.17-3.11-7.32-5.35c-1.28-1.35-3.11-2.24-4.28-3.82c-0.015-0.033-0.035-0.064-0.057-0.092   c-0.156-0.194-0.439-0.224-0.633-0.068c-0.25,0.16-0.56,0.04-0.44-0.21c0.67-1.4-0.6-1.88-1.26-2.46   c-1.265-1.267-2.282-2.759-3-4.4c-0.136-0.281-0.33-0.53-0.57-0.73c-0.55-0.45-1.35-0.75-1.27-1.7c0.01-0.09-0.16-0.23-0.27-0.29   c-2.03-1.1-1.77-3.27-2.36-5.05c-0.133-0.428-0.297-0.846-0.49-1.25c-1.16-2.27-0.94-4.85-1.39-7.27   c-0.038-0.277-0.108-0.549-0.21-0.81c-0.434-0.968-0.579-2.041-0.42-3.09c0.23-1.59,0.22-3.26,0.33-4.88   c0.09-1.32-0.17-2.82,0.83-4c0.135-0.181,0.218-0.395,0.24-0.62c0.356-1.882,1.004-3.697,1.92-5.38   c0.743-1.96,1.695-3.834,2.84-5.59c1-1.27,1.16-3.24,3-4c1.21-0.51,1.49-1.94,2-3.09c0.11-0.24,0.04-0.6,0.34-0.7   c1.7-0.56,2.39-2.45,3.77-3.11c1.22-0.58,2.12-1.53,3.3-2.07c0.24-0.74,0.5-1.49,1.4-1.74c0.18-0.04,0.09-0.3,0-0.46h0.01   c0.56,0.72,0.56,0.72,1.32-0.5c0.07,1.97-1.65,2.01-2.65,2.71c0.21,1.01-0.9,1.38-1.08,2.21c-0.01,0.07-0.22,0.13-0.33,0.13   c-1.024,0.021-1.853,0.837-1.89,1.86c-0.073,0.809-0.39,1.576-0.91,2.2c-0.23,0.32-0.68,0.64-0.23,1.18   c0.31,0.37-0.17,0.47-0.36,0.7c-1.11,1.33-2.54,2.5-1.8,4.63c0.18,0.51-0.31,1.35-0.47,1.89c-0.16,0.54-0.66,1.03-0.16,1.63   c0,0.06,0,0.24,0,0.24c-1.23,0.91-0.87,2.59-1.66,3.59c-0.385,0.413-0.519,1.001-0.35,1.54c0.1,0.46,0.29,1.08-0.54,1.08   c-0.1,0-0.19,0.11-0.29,0.17c0.94,0.55-0.17,1.47,0.31,2c0.48,0.53,0.15,0.97,0,1.36c-0.862,1.99-0.785,4.263,0.21,6.19   c0.26,0.49-0.66,1.08-0.06,1.58c1.1,0.92,0.92,2.14,0.85,3.32c-0.025,0.273,0.106,0.537,0.34,0.68   c0.553,0.431,0.828,1.128,0.72,1.82c-0.166,0.996,0.414,1.966,1.37,2.29c0.42,0.2,0.81,0.26,0.26,0.77   c-0.55,0.51-0.12,0.87,0.1,1.3c0.32,0.6,1.19,1.12,0.43,2c-0.06,0.06,0.05,0.25,0.05,0.38c1.75-0.35,0.76,1.27,1.24,1.88   c0.581,0.971,1.437,1.747,2.46,2.23c0.99,0.39,1.06,1.68,1.43,2.62c0.05,0.19-0.06,0.57,0.05,0.64c1.56,1.02,2,3.46,4.35,3.46   c0.043-0.002,0.085,0.006,0.124,0.023c0.136,0.061,0.197,0.221,0.136,0.357c-0.66,1.32,0.52,1.26,1.17,1.58   c1.075,0.38,2.009,1.078,2.68,2c0.12,0.21,0.13,0.43,0.44,0.27c0.58-0.28,0.91-0.13,1,0.49c0.04,0.29,0.13,0.4,0.45,0.29   c1.03-0.35,1.36-0.16,1.55,0.91c0.012,0.231,0.175,0.427,0.4,0.48c1.6,0.34,2.83,1.71,4.37,1.89c1.35,0.15,2.43,0.91,3.7,1.09   c0.35,0.05,0.69,0.11,0.82,0.37c0.39,0.74,0.79,0.29,1.19,0.07c1-0.58,1.76-0.27,2,0.94c0.08,0.38,0.34,0.72,0.59,0.54   c1.24-0.89,2.64,0.93,3.84-0.29c0.28-0.29,0.47,0.01,0.83,0.26c0.36,0.25,0.84,0.49,1.13,0.17c0.57-0.58,0.98,0,1.45,0   c1.1,0,2.33,0.28,3.33-0.41c0.28-0.18,0.48-0.47,0.82-0.18c1,0.84,1.6-0.04,2.23-0.55c0.28-0.23,0.46-0.56,0.89-0.49   c0.28,0.05,0.38,0.26,0.38,0.5C207.9,108.282,207.51,108.532,207.17,108.702z"></path>
</g>

            </g>
        </g>
    </g>
    
</svg>