<?xml version="1.0" encoding="iso-8859-1" ?>
<svg version="1.1" xmlns="http://www.w3.org/2000/svg" xmlns:xlink="http://www.w3.org/1999/xlink" 
    viewBox="0 0 1280 720" width="370" height="100">
    
    
    <!-- ITEM 0 -->
    <g>
        <defs>
            <clipPath id="clip-path-id-viewbox-item-0">
                <rect x="0.0" y="0.0" width="1400.0" height="980.0"/>
            </clipPath>
        </defs>
        <g transform="translate(2.0 -86.0) rotate(0.0 637.0 446.0) scale(0.91 0.9102040816326531)">
            <g clip-path="url(#clip-path-id-viewbox-item-0)" transform="translate(-0.0 -0.0)">
                <rect id="ee-background-i0" x="0" y="0" width="1400" height="980" style="fill: white; fill-opacity: 1; pointer-events: none;"></rect>
 
 
<path d="M 531.7173461914062 360.07000732421875 C 536.210693359375 360.07000732421875 538.4573974609375 361.57666015625 538.4573974609375 364.5899963378906 C 538.4573974609375 365.9566650390625 538.0407104492188 367.0466613769531 537.2073974609375 367.8599853515625 C 536.3806762695312 368.67333984375 535.2740478515625 369.1933288574219 533.8873901367188 369.4200134277344 C 535.720703125 369.7266540527344 536.9773559570312 370.67333984375 537.6573486328125 372.260009765625 C 537.9307250976562 372.8999938964844 538.1707153320312 373.60333251953125 538.3773803710938 374.3699951171875 C 538.5840454101562 375.1433410644531 538.7706909179688 375.69000244140625 538.9373779296875 376.010009765625 C 539.29736328125 376.7300109863281 539.827392578125 377.0899963378906 540.52734375 377.0899963378906 L 540.9973754882812 377.0899963378906 L 541.0173950195312 378.05999755859375 L 539.3673706054688 378.05999755859375 C 537.8340454101562 378.05999755859375 536.8040161132812 377.85333251953125 536.27734375 377.44000244140625 C 535.7373657226562 377.0133361816406 535.327392578125 376.17999267578125 535.04736328125 374.94000244140625 C 534.787353515625 373.8066711425781 534.5740356445312 373.0333251953125 534.4073486328125 372.6199951171875 C 534.0673828125 371.73333740234375 533.6240234375 371.0333251953125 533.077392578125 370.5199890136719 C 532.5307006835938 370.0133361816406 531.8240356445312 369.760009765625 530.9573974609375 369.760009765625 L 528.807373046875 369.760009765625 L 528.807373046875 377.0899963378906 L 531.54736328125 377.0899963378906 L 531.54736328125 378 L 523.7573852539062 378 L 523.7573852539062 377.0899963378906 L 525.6473999023438 377.0899963378906 L 525.6573486328125 360.9800109863281 L 523.7573852539062 360.9800109863281 L 523.7573852539062 360.07000732421875 L 531.7173461914062 360.07000732421875 M 531.5073852539062 368.95001220703125 C 532.9273681640625 368.95001220703125 533.9273681640625 368.49334716796875 534.5073852539062 367.5799865722656 C 534.9273681640625 366.9200134277344 535.1373901367188 365.9800109863281 535.1373901367188 364.760009765625 C 535.1373901367188 363.5400085449219 534.8906860351562 362.6400146484375 534.3973999023438 362.05999755859375 C 533.7907104492188 361.3399963378906 532.7573852539062 360.9800109863281 531.29736328125 360.9800109863281 L 528.807373046875 360.9800109863281 L 528.807373046875 368.95001220703125 L 531.5073852539062 368.95001220703125 ZM 553.4039306640625 375.95001220703125 C 552.17724609375 377.4700012207031 550.4306030273438 378.2300109863281 548.1639404296875 378.2300109863281 C 547.417236328125 378.2300109863281 546.6372680664062 378.0733337402344 545.8239135742188 377.760009765625 C 545.0106201171875 377.4466552734375 544.3206176757812 377.010009765625 543.75390625 376.45001220703125 C 542.5739135742188 375.2833251953125 541.9839477539062 373.7900085449219 541.9839477539062 371.9700012207031 C 541.9839477539062 370.15667724609375 542.5772705078125 368.67999267578125 543.763916015625 367.5400085449219 C 544.9506225585938 366.3933410644531 546.457275390625 365.82000732421875 548.283935546875 365.82000732421875 C 550.9705810546875 365.82000732421875 552.6639404296875 366.9466552734375 553.3639526367188 369.20001220703125 C 553.590576171875 369.9200134277344 553.7039184570312 370.7266540527344 553.7039184570312 371.6199951171875 L 545.2139282226562 371.6199951171875 L 545.2139282226562 371.9800109863281 C 545.2139282226562 374.3933410644531 545.8972778320312 375.9766540527344 547.263916015625 376.7300109863281 C 547.7239379882812 376.989990234375 548.27392578125 377.1199951171875 548.9139404296875 377.1199951171875 C 550.340576171875 377.1199951171875 551.630615234375 376.5433349609375 552.783935546875 375.3900146484375 L 553.4039306640625 375.95001220703125 M 550.5439453125 370.6600036621094 C 550.5305786132812 369.413330078125 550.340576171875 368.4599914550781 549.9739379882812 367.79998779296875 C 549.6072387695312 367.1400146484375 549.00390625 366.80999755859375 548.1639404296875 366.80999755859375 C 546.4705810546875 366.80999755859375 545.5072631835938 368.09332275390625 545.27392578125 370.6600036621094 L 550.5439453125 370.6600036621094 ZM 566.5361328125 376.30999755859375 C 565.5361328125 377.5899963378906 563.99609375 378.2300109863281 561.9161376953125 378.2300109863281 C 561.1828002929688 378.2300109863281 560.4127807617188 378.0899963378906 559.6061401367188 377.80999755859375 C 558.7994384765625 377.5299987792969 558.0994262695312 377.1199951171875 557.506103515625 376.5799865722656 C 556.2528076171875 375.4266662597656 555.6260986328125 373.8933410644531 555.6260986328125 371.9800109863281 C 555.6260986328125 370.0733337402344 556.2394409179688 368.5666809082031 557.4661254882812 367.4599914550781 C 558.699462890625 366.3599853515625 560.2594604492188 365.80999755859375 562.1461181640625 365.80999755859375 C 563.2261352539062 365.80999755859375 564.2261352539062 366.04998779296875 565.1461181640625 366.5299987792969 C 566.0594482421875 367.010009765625 566.51611328125 367.69000244140625 566.51611328125 368.57000732421875 C 566.51611328125 369.03668212890625 566.3694458007812 369.4166564941406 566.0761108398438 369.7099914550781 C 565.776123046875 370.010009765625 565.45947265625 370.1600036621094 565.1260986328125 370.1600036621094 C 564.5728149414062 370.1600036621094 564.1427612304688 370.0299987792969 563.8361206054688 369.7699890136719 C 563.5294799804688 369.51666259765625 563.3760986328125 369.1700134277344 563.3760986328125 368.7300109863281 C 563.3760986328125 368.01666259765625 563.6627807617188 367.5233459472656 564.2361450195312 367.25 C 563.6561279296875 366.8900146484375 562.9861450195312 366.7099914550781 562.2261352539062 366.7099914550781 C 559.9794311523438 366.7099914550781 558.8561401367188 368.4666748046875 558.8561401367188 371.9800109863281 C 558.8561401367188 374.4466552734375 559.5361328125 376.0400085449219 560.8961181640625 376.760009765625 C 561.3494262695312 376.99334716796875 561.8760986328125 377.1099853515625 562.4761352539062 377.1099853515625 C 563.8961181640625 377.1099853515625 565.046142578125 376.65667724609375 565.9261474609375 375.75 L 566.5361328125 376.30999755859375 ZM 572.6995849609375 367.6300048828125 C 573.952880859375 366.4166564941406 575.3095703125 365.80999755859375 576.76953125 365.80999755859375 C 577.242919921875 365.80999755859375 577.6595458984375 365.9666748046875 578.01953125 366.2799987792969 C 578.3795776367188 366.59332275390625 578.5595703125 366.99334716796875 578.5595703125 367.4800109863281 C 578.5595703125 367.9666748046875 578.40625 368.36334228515625 578.0995483398438 368.6700134277344 C 577.7929077148438 368.9766540527344 577.4229125976562 369.1300048828125 576.9895629882812 369.1300048828125 C 576.549560546875 369.1300048828125 576.1795654296875 368.9800109863281 575.8795776367188 368.67999267578125 C 575.5795288085938 368.3800048828125 575.4295654296875 368.00665283203125 575.4295654296875 367.55999755859375 C 575.4295654296875 367.3800048828125 575.4595336914062 367.1966552734375 575.51953125 367.010009765625 C 574.38623046875 367.3500061035156 573.4462280273438 367.92999267578125 572.6995849609375 368.75 L 572.6995849609375 377.1000061035156 L 575.2595825195312 377.1000061035156 L 575.2595825195312 378 L 567.8795776367188 378 L 567.8795776367188 377.1000061035156 L 569.6295776367188 377.1000061035156 L 569.6295776367188 366.92999267578125 L 567.8695678710938 366.92999267578125 L 567.8695678710938 366.010009765625 L 572.6995849609375 366.010009765625 L 572.6995849609375 367.6300048828125 ZM 589.26953125 376.8500061035156 C 588.2295532226562 377.7699890136719 587.106201171875 378.2300109863281 585.8995361328125 378.2300109863281 C 584.69287109375 378.2300109863281 583.6695556640625 377.989990234375 582.8295288085938 377.510009765625 C 581.6762084960938 376.8299865722656 581.0995483398438 375.6933288574219 581.0995483398438 374.1000061035156 L 581.0995483398438 366.92999267578125 L 579.4295654296875 366.92999267578125 L 579.4295654296875 366.010009765625 L 584.1495361328125 366.010009765625 L 584.1495361328125 374.6400146484375 C 584.1495361328125 376.2866516113281 584.9095458984375 377.1099853515625 586.4295654296875 377.1099853515625 C 587.48291015625 377.1099853515625 588.4295654296875 376.6266784667969 589.26953125 375.6600036621094 L 589.26953125 366.92999267578125 L 587.2395629882812 366.92999267578125 L 587.2395629882812 366.010009765625 L 592.28955078125 366.010009765625 L 592.28955078125 377.0899963378906 L 593.799560546875 377.0899963378906 L 593.799560546875 378 L 589.26953125 378 L 589.26953125 376.8500061035156 ZM 609.1295776367188 378.2300109863281 C 606.3428955078125 378.2300109863281 604.9495849609375 376.9333190917969 604.9495849609375 374.3399963378906 L 604.9495849609375 366.92999267578125 L 603.529541015625 366.92999267578125 L 603.529541015625 366.010009765625 L 604.9495849609375 366.010009765625 L 604.9495849609375 362.42999267578125 C 605.65625 362.42999267578125 606.5228881835938 362.24334716796875 607.549560546875 361.8699951171875 C 607.7828979492188 361.7900085449219 607.9495849609375 361.7166748046875 608.049560546875 361.6499938964844 L 608.049560546875 366.010009765625 L 611.9095458984375 366.010009765625 L 611.9095458984375 366.92999267578125 L 608.049560546875 366.92999267578125 L 608.049560546875 375.19000244140625 C 608.049560546875 375.9100036621094 608.1995849609375 376.4266662597656 608.4995727539062 376.739990234375 C 608.799560546875 377.0533447265625 609.1995849609375 377.2099914550781 609.6995849609375 377.2099914550781 C 610.4862060546875 377.2099914550781 611.1895751953125 376.86334228515625 611.8095703125 376.1700134277344 L 612.4295654296875 376.7200012207031 C 611.8695678710938 377.4200134277344 611.106201171875 377.88665771484375 610.1395874023438 378.1199951171875 C 609.819580078125 378.1933288574219 609.48291015625 378.2300109863281 609.1295776367188 378.2300109863281 Z" transform="matrix(15.444875717163086, 0, 0, 15.444875717163086, -8073.28173828125, -5275.2294921875)" style="fill: rgb(51, 51, 51); white-space: pre; color: rgb(51, 51, 51);"></path><path d="M 531.84814453125 769.260009765625 L 521.6681518554688 768.22998046875 C 517.9948120117188 768.22998046875 515.1514892578125 769.11669921875 513.1381225585938 770.8900146484375 C 510.9981384277344 772.8699951171875 509.4214782714844 776.6766357421875 508.40814208984375 782.3099975585938 C 507.4014892578125 787.9366455078125 506.434814453125 795.42333984375 505.5081481933594 804.77001953125 C 504.5747985839844 814.1166381835938 504.108154296875 820.856689453125 504.108154296875 824.989990234375 C 504.108154296875 829.1300048828125 504.7748107910156 832.056640625 506.108154296875 833.77001953125 C 507.44146728515625 835.489990234375 509.02813720703125 836.3499755859375 510.8681335449219 836.3499755859375 C 512.7014770507812 836.3499755859375 514.184814453125 836.3300170898438 515.318115234375 836.2899780273438 L 519.3081665039062 801.9600219726562 C 519.4681396484375 801.066650390625 519.9948120117188 800.5800170898438 520.8881225585938 800.5 L 532.2681274414062 800.0800170898438 C 533.3547973632812 800.1199951171875 533.8981323242188 800.6033325195312 533.8981323242188 801.530029296875 L 528.818115234375 846.9400024414062 C 528.6581420898438 847.82666015625 528.1114501953125 848.3333129882812 527.1781616210938 848.4600219726562 C 521.8114624023438 849.2666625976562 515.2747802734375 849.6699829101562 507.5681457519531 849.6699829101562 C 498.32147216796875 849.6699829101562 492.3881530761719 845.2100219726562 489.7681579589844 836.2899780273438 C 489.0414733886719 833.8233642578125 488.6781311035156 831.3800048828125 488.6781311035156 828.9600219726562 C 488.6781311035156 826.5399780273438 488.7581481933594 823.67333984375 488.91815185546875 820.3599853515625 C 489.39813232421875 808.4933471679688 490.8114929199219 796.183349609375 493.15814208984375 783.4299926757812 C 494.7314758300781 774.5499877929688 496.66815185546875 768.3133544921875 498.9681396484375 764.719970703125 C 501.3881530761719 760.9666748046875 504.2947998046875 758.3433227539062 507.6881408691406 756.8499755859375 C 511.9214782714844 754.989990234375 516.4614868164062 754.0599975585938 521.3081665039062 754.0599975585938 C 526.15478515625 754.0599975585938 529.3848266601562 754.193359375 530.9981689453125 754.4600219726562 C 532.6114501953125 754.719970703125 533.5181274414062 754.8699951171875 533.7181396484375 754.9100341796875 C 534.204833984375 755.0700073242188 534.4481201171875 755.5733642578125 534.4481201171875 756.4199829101562 L 533.1181640625 767.6900024414062 C 532.9514770507812 768.7366943359375 532.5281372070312 769.260009765625 531.84814453125 769.260009765625 ZM 548.7625732421875 837.6500244140625 C 548.7625732421875 837.6500244140625 548.52587890625 837.0499877929688 548.0525512695312 835.8499755859375 C 547.5792236328125 834.643310546875 547.1725463867188 832.8599853515625 546.8325805664062 830.5 C 546.4859008789062 828.1400146484375 546.3125610351562 824.9033203125 546.3125610351562 820.7899780273438 C 546.3125610351562 816.6699829101562 546.7559204101562 811.5833129882812 547.642578125 805.530029296875 C 550.5892333984375 785.3433227539062 559.7525634765625 775.25 575.132568359375 775.25 C 581.06591796875 775.25 585.6092529296875 777.2899780273438 588.7625732421875 781.3699951171875 C 591.9092407226562 785.443359375 593.4825439453125 790.72998046875 593.4825439453125 797.22998046875 C 593.4825439453125 803.72998046875 593.0792236328125 810.0466918945312 592.2725830078125 816.1799926757812 C 592.152587890625 817.2733154296875 591.52587890625 817.8400268554688 590.392578125 817.8800048828125 L 560.4825439453125 818.9099731445312 C 560.4425659179688 819.5166625976562 560.4225463867188 820.3233642578125 560.4225463867188 821.3300170898438 C 560.4225463867188 825.8900146484375 561.21923828125 829.5033569335938 562.8125610351562 832.1699829101562 C 564.4058837890625 834.8300170898438 566.8192138671875 836.1599731445312 570.0525512695312 836.1599731445312 C 573.2792358398438 836.1599731445312 576.27587890625 835.6866455078125 579.0425415039062 834.739990234375 C 581.8025512695312 833.7933349609375 583.4259033203125 833.3200073242188 583.91259765625 833.3200073242188 C 584.3992309570312 833.3200073242188 584.8225708007812 833.47998046875 585.1825561523438 833.7999877929688 C 585.5492553710938 834.1266479492188 585.7325439453125 834.5700073242188 585.7325439453125 835.1300048828125 L 584.5225830078125 845.7899780273438 C 584.4825439453125 846.3966674804688 584.3692626953125 846.7899780273438 584.1825561523438 846.969970703125 C 584.0025634765625 847.1500244140625 583.6492309570312 847.3433227539062 583.12255859375 847.5499877929688 C 578.2425537109375 848.9633178710938 573.5425415039062 849.6699829101562 569.0225830078125 849.6699829101562 C 564.5025634765625 849.6699829101562 560.9892578125 849.1233520507812 558.4825439453125 848.030029296875 C 555.9825439453125 846.943359375 553.9758911132812 845.5399780273438 552.4625854492188 843.8200073242188 C 550.94921875 842.106689453125 549.7158813476562 840.0499877929688 548.7625732421875 837.6500244140625 M 561.9325561523438 803.7100219726562 L 561.392578125 807.5900268554688 L 577.1925659179688 806.7999877929688 C 577.8792114257812 806.760009765625 578.3225708007812 806.6400146484375 578.5225830078125 806.4400024414062 C 579.1292114257812 805.8333129882812 579.4325561523438 804.1666870117188 579.4325561523438 801.4400024414062 C 579.4325561523438 798.7133178710938 579.3425903320312 796.7966918945312 579.16259765625 795.6900024414062 C 578.9825439453125 794.57666015625 578.6692504882812 793.4366455078125 578.2225952148438 792.27001953125 C 577.2958984375 789.683349609375 575.7125854492188 788.3900146484375 573.4725952148438 788.3900146484375 C 571.2325439453125 788.3900146484375 569.4658813476562 788.7733154296875 568.1725463867188 789.5399780273438 C 565.305908203125 791.3200073242188 563.2258911132812 796.0433349609375 561.9325561523438 803.7100219726562 ZM 628.1172485351562 777.3699951171875 L 627.447265625 782.9400024414062 C 633.2606201171875 777.8133544921875 638.83056640625 775.25 644.1572265625 775.25 C 650.937255859375 775.25 655.21728515625 778.9633178710938 656.9972534179688 786.3900146484375 C 657.4772338867188 788.4099731445312 657.71728515625 790.3200073242188 657.71728515625 792.1199951171875 C 657.71728515625 793.913330078125 657.6572265625 795.356689453125 657.5372314453125 796.4500122070312 L 651.7272338867188 847.1799926757812 C 651.5672607421875 848.193359375 651.0639038085938 848.739990234375 650.21728515625 848.8200073242188 L 637.9772338867188 849.239990234375 C 637.090576171875 849.1599731445312 636.6472778320312 848.7766723632812 636.6472778320312 848.0900268554688 L 642.1572265625 800.1400146484375 C 642.2772827148438 799.086669921875 642.3372802734375 798.1366577148438 642.3372802734375 797.2899780273438 C 642.3372802734375 793.9833374023438 641.5606079101562 791.7333374023438 640.0072631835938 790.5399780273438 C 638.4539184570312 789.3533325195312 636.4872436523438 788.760009765625 634.1072387695312 788.760009765625 C 631.7272338867188 788.760009765625 629.243896484375 789.2633056640625 626.6572265625 790.27001953125 L 620.17724609375 847.1799926757812 C 620.0172729492188 848.193359375 619.513916015625 848.739990234375 618.667236328125 848.8200073242188 L 606.437255859375 849.239990234375 C 605.5505981445312 849.1599731445312 605.1072387695312 848.7766723632812 605.1072387695312 848.0900268554688 L 613.0972290039062 777.6799926757812 C 613.2572631835938 776.7866821289062 613.7606201171875 776.2999877929688 614.6072387695312 776.219970703125 L 626.4772338867188 775.7999877929688 C 627.5706176757812 775.8399658203125 628.1172485351562 776.3633422851562 628.1172485351562 777.3699951171875 ZM 685.9307861328125 769.2000122070312 C 685.9307861328125 769.2000122070312 685.3074340820312 769.2000122070312 684.060791015625 769.2000122070312 C 682.8074340820312 769.2000122070312 681.43408203125 768.413330078125 679.9407958984375 766.8399658203125 C 678.4474487304688 765.2666625976562 677.7007446289062 763.2366943359375 677.7007446289062 760.75 C 677.7007446289062 758.27001953125 678.7007446289062 756.0499877929688 680.7007446289062 754.0899658203125 C 682.694091796875 752.1366577148438 684.944091796875 751.1600341796875 687.4507446289062 751.1600341796875 C 689.9507446289062 751.1600341796875 691.9774169921875 751.9466552734375 693.53076171875 753.52001953125 C 695.0841064453125 755.0933227539062 695.8607788085938 757.1199951171875 695.8607788085938 759.5999755859375 C 695.8607788085938 762.086669921875 694.8341064453125 764.306640625 692.78076171875 766.260009765625 C 690.7207641601562 768.219970703125 688.4374389648438 769.2000122070312 685.9307861328125 769.2000122070312 M 692.6607666015625 777.3699951171875 L 684.78076171875 847.1799926757812 C 684.7007446289062 847.7466430664062 684.560791015625 848.1500244140625 684.3607788085938 848.3900146484375 C 684.1607666015625 848.6366577148438 683.7774658203125 848.780029296875 683.2107543945312 848.8200073242188 L 671.040771484375 849.239990234375 C 670.1541137695312 849.1599731445312 669.7107543945312 848.7766723632812 669.7107543945312 848.0900268554688 L 677.7007446289062 777.6799926757812 C 677.8607788085938 776.7866821289062 678.3641357421875 776.2999877929688 679.2107543945312 776.219970703125 L 691.020751953125 775.7999877929688 C 692.1141357421875 775.8800048828125 692.6607666015625 776.4033203125 692.6607666015625 777.3699951171875 ZM 734.4293823242188 847.72998046875 L 734.9193725585938 843.0700073242188 C 730.03271484375 847.469970703125 724.502685546875 849.6699829101562 718.329345703125 849.6699829101562 C 713.6893920898438 849.6699829101562 710.2693481445312 847.9733276367188 708.0693359375 844.5800170898438 C 705.869384765625 841.1866455078125 704.7693481445312 836.9500122070312 704.7693481445312 831.8699951171875 C 704.7693481445312 831.0166625976562 704.849365234375 829.8633422851562 705.0093383789062 828.4099731445312 L 710.7593383789062 777.739990234375 C 710.87939453125 776.7666625976562 711.3826904296875 776.260009765625 712.2693481445312 776.219970703125 L 724.4993896484375 775.739990234375 C 725.3527221679688 775.8200073242188 725.7793579101562 776.2433471679688 725.7793579101562 777.010009765625 L 720.329345703125 824.780029296875 C 720.2026977539062 825.8333129882812 720.1393432617188 826.8033447265625 720.1393432617188 827.6900024414062 C 720.1393432617188 831.07666015625 720.7960205078125 833.336669921875 722.109375 834.469970703125 C 723.4227294921875 835.5966796875 725.4027099609375 836.1599731445312 728.0493774414062 836.1599731445312 C 730.6893920898438 836.1599731445312 733.3026733398438 835.6566772460938 735.8893432617188 834.6500244140625 L 742.3093872070312 777.739990234375 C 742.4293823242188 776.7666625976562 742.9326782226562 776.260009765625 743.8193359375 776.219970703125 L 756.0493774414062 775.7999877929688 C 756.8960571289062 775.8800048828125 757.3193359375 776.3033447265625 757.3193359375 777.0700073242188 L 749.4493408203125 847.1199951171875 C 749.329345703125 848.0933227539062 748.78271484375 848.6199951171875 747.8093872070312 848.7000122070312 L 736.0093383789062 849.239990234375 C 734.9560546875 849.2000122070312 734.4293823242188 848.6966552734375 734.4293823242188 847.72998046875 ZM 800.4928588867188 789.9099731445312 L 793.6528930664062 789.5999755859375 C 791.712890625 789.5999755859375 790.1862182617188 790.0466918945312 789.0728759765625 790.9400024414062 C 787.9661865234375 791.82666015625 787.4129028320312 793.106689453125 787.4129028320312 794.780029296875 C 787.4129028320312 796.4533081054688 787.7161865234375 798.2999877929688 788.3228759765625 800.3200073242188 C 789.1295166015625 803.0266723632812 790.5328979492188 806.1766357421875 792.5328979492188 809.77001953125 C 794.5262451171875 813.356689453125 795.9061889648438 815.8966674804688 796.6728515625 817.3900146484375 C 799.0128784179688 822.0366821289062 800.182861328125 826.4566650390625 800.182861328125 830.6500244140625 C 800.182861328125 836.75 798.3995361328125 841.443359375 794.8328857421875 844.72998046875 C 791.259521484375 848.0233154296875 785.8395385742188 849.6699829101562 778.5728759765625 849.6699829101562 C 774.9795532226562 849.6699829101562 772.1128540039062 849.4766845703125 769.972900390625 849.0900268554688 C 767.8328857421875 848.7100219726562 766.6528930664062 848.4066772460938 766.432861328125 848.1799926757812 C 766.212890625 847.9600219726562 766.1029052734375 847.606689453125 766.1029052734375 847.1199951171875 L 767.6728515625 835.9199829101562 C 767.7528686523438 834.913330078125 768.106201171875 834.4099731445312 768.73291015625 834.4099731445312 C 769.3595581054688 834.4099731445312 770.5595703125 834.6300048828125 772.3328857421875 835.0700073242188 C 774.1128540039062 835.5166625976562 775.6661987304688 835.739990234375 776.9928588867188 835.739990234375 C 781.9195556640625 835.739990234375 784.3828735351562 833.7833251953125 784.3828735351562 829.8699951171875 C 784.3828735351562 827.0833129882812 783.78955078125 824.47998046875 782.6029052734375 822.0599975585938 C 781.4095458984375 819.6333618164062 780.1162109375 817.1300048828125 778.722900390625 814.5499877929688 C 777.3295288085938 811.9633178710938 776.2495727539062 809.893310546875 775.48291015625 808.3400268554688 C 774.7161865234375 806.7866821289062 773.9195556640625 804.6366577148438 773.0928955078125 801.8900146484375 C 772.2662353515625 799.1500244140625 771.8529052734375 796.566650390625 771.8529052734375 794.1400146484375 C 771.8529052734375 788.4933471679688 773.5361938476562 783.933349609375 776.9028930664062 780.4600219726562 C 780.2762451171875 776.9866943359375 785.19287109375 775.25 791.6528930664062 775.25 C 795.8062133789062 775.25 799.0562133789062 775.4533081054688 801.4028930664062 775.8599853515625 C 802.4095458984375 776.02001953125 802.9129028320312 776.5433349609375 802.9129028320312 777.4299926757812 L 801.5828857421875 788.2100219726562 C 801.5828857421875 789.3433227539062 801.2195434570312 789.9099731445312 800.4928588867188 789.9099731445312 Z" transform="matrix(1.4778529405593872, 0, 0, 1.4778529405593872, -118.9122543334961, -532.5924682617188)" style="fill: rgb(92, 199, 237); white-space: pre; color: rgb(51, 51, 51);"></path>
            </g>
        </g>
    </g>
    
    <!-- ITEM 1 -->
    <g>
        <defs>
            <clipPath id="clip-path-id-viewbox-item-1">
                <rect x="0.0" y="0.0" width="39.918" height="130.93"/>
            </clipPath>
        </defs>
        <g transform="translate(1000.0 132.0) rotate(0.0 78.0 260.5) scale(3.908011423418007 3.9792255403650802)">
            <g clip-path="url(#clip-path-id-viewbox-item-1)" transform="translate(-0.0 -0.0)">
                <title>tie</title><g id="Layer_2-i1" data-name="Layer 2"><g id="tie-i1"><path d="M7.246,130.93s5.989-10.36,14.433-23.555c.419-2.416.818-4.851,1.2-7.266,1.737-10.64,3.274-21.28,4.791-31.939l4.492-31.839a6.175,6.175,0,0,0-.14-4.133,38.348,38.348,0,0,0-3.693-4.97,4.694,4.694,0,0,1-1.318-4.472c.44-1.3,2.655-2.135,4.931-2.934a14.964,14.964,0,0,0,2.914-1.277,4.552,4.552,0,0,0,1.537-1.637,21.766,21.766,0,0,0,2-3.494,15.267,15.267,0,0,0,1.177-3.653,13.973,13.973,0,0,0,.22-5.05L20.82,0a8.117,8.117,0,0,0-2,3.214,17.1,17.1,0,0,0-1.178,4.172,19.7,19.7,0,0,0-.239,4.352,4.779,4.779,0,0,0,.459,2.315,14.144,14.144,0,0,0,1.9,2.655c1.6,1.837,3.174,3.633,2.935,4.99s-1.278,2.5-3.194,3.454a34.77,34.77,0,0,0-5.53,2.994c-1.437,1.1-1.437,2.515-1.9,3.833Q7.565,47.948,4.452,64.3C2.675,73.36,1.118,82.921,0,92.064,1.6,103.382,4.771,118.394,7.246,130.93Z" fill="#04294f"></path></g></g>
            </g>
        </g>
    </g>
    
</svg>