<?xml version="1.0" encoding="UTF-8"?><svg version="1.1" xmlns="http://www.w3.org/2000/svg" xmlns:xlink="http://www.w3.org/1999/xlink" viewBox="0 0 1500 1500" width="800" height="400" x="0px" y="0px">
              
              <!-- ITEM 0 -->
<g>
    <defs>
        
        <clipPath id="clip-path-id-viewbox-item-0">
            <rect x="0.0" y="0.0" width="100.0" height="100.0"/>
        </clipPath>
    </defs>
    <g transform="translate(226.0 412.0) rotate(0.0 64.5 64.5) scale(1.29 1.29)">
        <g clip-path="url(#clip-path-id-viewbox-item-0)" transform="translate(-0.0 -0.0)">

<circle fill="#f2f2f2" cx="50" cy="50" r="50"/>

        </g>
    </g>
</g>

<!-- ITEM 1 -->
<g>
    <defs>
        
        <clipPath id="clip-path-id-viewbox-item-1">
            <rect x="0.0" y="0.0" width="100.0" height="100.0"/>
        </clipPath>
    </defs>
    <g transform="translate(803.0 261.0) rotate(0.0 311.0 311.0) scale(6.22 6.22)">
        <g clip-path="url(#clip-path-id-viewbox-item-1)" transform="translate(-0.0 -0.0)">

<circle fill="#ececec" cx="50" cy="50" r="50"/>

        </g>
    </g>
</g>

<!-- ITEM 2 -->
<g>
    <defs>
        
        <clipPath id="clip-path-id-viewbox-item-2">
            <rect x="0.0" y="0.0" width="269.987" height="371.981"/>
        </clipPath>
    </defs>
    <g transform="translate(652.0 380.0) rotate(0.0 333.5 459.0) scale(2.470489319856141 2.4678679825044827)">
        <g clip-path="url(#clip-path-id-viewbox-item-2)" transform="translate(-0.0 -0.0)">

<rect x="2.528" y="170.817" fill="#EEEEEE" width="160.682" height="9.623"/>
<path fill="#FFBEB6" d="M155.729,174.955c0.464,0.557,0.47,1.349,0.49,2.074c0.104,3.885,1.936,13.995,3.3,11.042  c1.027-4.06,1.095-8.36,0.196-12.45c1.998,1.507,1.702,4.51,1.528,7.007s2.001,7.248,3.162,5.897  c0.97-4.426,1.125-8.862,0.63-13.366c0.983,3.212,2.276,6.33,3.855,9.295c0.217,0.407,0.484,0.848,0.929,0.968  c1.173,0.315,1.468-1.581,1.121-2.745c-1.444-4.844-3.66-10.453-8.582-11.604c-2.449-0.573-6.046-0.661-6.153-3.174  c3.624-8.89,6.84-17.946,9.634-27.131c-3.201-0.427-6.171-2.347-7.875-5.09c-3.927,6.839-7.885,13.746-10.228,21.276  c-0.714,2.296-1.293,4.681-2.591,6.705c-2.495,3.891-7.138,5.74-11.524,7.195c-1.693,0.562-3.766,2.422-2.47,3.648  c5.485-1.858,11.288-2.771,17.079-2.687c2.059,0.786,4.118,1.571,6.177,2.357C154.891,174.357,155.397,174.557,155.729,174.955z"/>
<path fill="#FFBEB6" d="M51.159,166.298c-1.629-2.648,15.222-2.571,22.834-3.857c4.626-0.781,9.433-1.636,13.237-4.383  c2.974-2.147,5.069-5.266,7.211-8.245c1.752-2.438,3.576-4.824,5.468-7.154c0.825-1.016,1.887-2.12,3.189-1.989  c1.314,0.132,2.184,1.558,2.176,2.878c-0.008,1.32-0.655,2.541-1.286,3.701c-2.075,3.816-4.15,7.632-6.226,11.449  c-1.036,1.905-2.106,4.038-1.6,6.147c0.945,3.935,8.493,5.93,8.436,8.392c0.058,2.038-8.574-0.739-11.898-3.351  c-0.55-0.432-1.082-0.906-1.724-1.181c-1.443-0.619-3.092-0.12-4.598,0.325c-10.377,3.063-21.59,3.241-32.059,0.509  c-0.066-1.395,1.393-2.44,2.782-2.581c1.39-0.14,2.76,0.328,4.145,0.509c1.838,0.24,4.201,0.201,6.034-0.066  c4.861-0.707,7.139-1.043,12-1.75C69.245,166.615,52.655,167.524,51.159,166.298z"/>
<path fill="#D62929" d="M252.608,302.938c4.821,3.997,10.372,7.11,16.297,9.14c-1.997,18.509-4.724,36.94-8.174,55.235  c-6.905-2.872-12.006-9.129-14.83-16.054c-2.825-6.925-3.603-14.509-3.809-21.985c-0.041-1.486-0.055-3.01,0.443-4.411  c0.554-1.56,1.69-2.828,2.61-4.204c3.295-4.928,3.832-11.273,6.962-16.307C254.593,300.35,248.627,305.458,252.608,302.938z"/>
<path fill="#E94A47" d="M251.008,344.35c-0.589,8.23-0.103,24.549-0.103,24.549s-53,0.5-63.5,0.5  c1.656-6.709,5.608-9.992,11.917-12.811c1.941-0.867,3.991-1.458,6.033-2.047c7.006-2.018,14.012-4.036,21.018-6.055  c4.299-1.238,8.636-2.484,13.098-2.807c3.998-0.289,8.153,0.148,11.9-1.275C247.097,351.194,251.581,336.349,251.008,344.35z"/>
<path fill="#151A4F" d="M242.259,274.881c-2.157-2.663-5.173-4.953-7.854-6.982c-4.26-3.224-3.243-5.731-6-10.5  c-1.992-3.445-6.43-6.968-8.613-10.276c-0.587-0.889-1.04-1.975-0.863-3.044c0.144-0.87,0.679-1.592,1.19-2.278  c14.022-18.812,23.406-41.198,30.959-63.988c2.554-7.706,4.948-15.865,3.74-23.985c-2.149-14.443-14.635-24.08-26.042-32.012  c-2.285,8.88-9.238,15.194-14.536,22.385c-5.297,7.191-9.042,17.717-4.228,25.403c-6.706,22.909-13.1,45.928-19.18,69.047  c-1.099,4.18-2.199,8.527-1.558,12.836c0.612,4.115,2.747,7.765,4.834,11.282c5.372,9.053,10.743,18.107,16.115,27.16  c8.567,14.439,17.189,28.992,23.05,44.915c4.703-8.704,10.741-16.553,17.795-23.131c-4.472-9.332-6.983-19.741-7.286-30.209  C243.715,279.185,243.679,276.634,242.259,274.881z"/>
<linearGradient id="SVGID_1_-i2" gradientUnits="userSpaceOnUse" x1="212.4049" y1="235.0321" x2="265.2603" y2="235.0321">
	<stop offset="0" style="stop-color:#23286B"/>
	<stop offset="1" style="stop-color:#151A4F"/>
</linearGradient>
<path fill="url(#SVGID_1_-i2)" d="M259.405,306.899c0.858-3.92,2.962-15.524,3.5-19.5c1.465-10.836-3.349-19.691-5-30.5  c-1.009-6.609-1.182-10.153-1.126-16.838c0.081-9.675,1.546-12.487,1.626-22.162c0.07-8.322-0.577-27.329,1-35.5  c1.953-10.118,5.532-16.088,5.839-26.388c0.461-15.445-8.915-30.748-22.886-37.35c-9.604,5.056-19.604,20.97-29.953,24.238  c9.845,30.234,4.919,51.41,8.891,82.958c0.72,5.717,1.742,11.434,3.737,16.84c1.34,3.633,3.11,7.097,4.414,10.743  c2.603,7.277,3.292,15.087,3.679,22.806c1.203,23.999-0.304,48.134-4.483,71.797c7.653-0.144,15.328,0.996,22.608,3.36  C268.405,328.399,255.944,322.71,259.405,306.899z"/>
<path fill="#81AEF2" d="M172.382,47.48c-8.368,1.308-16.736,2.615-25.104,3.923c-1.737,0.271-3.497,0.549-5.099,1.229  c-4.661,1.979-12.545,13.606-14.273,18.101c-5.43,14.119-7.784,19.535-12,32c-6.848,20.243-12.205,37.306-26.875,53.667  c13.39,0.885,12.365,6.613,25.542,9c-3.333-16,19.35-46.137,30-71.333c2.837-6.712,4.659-20.107,10.793-24.521  c1.915-1.378,10.706-2.712,12.545-4.177C173.26,61.105,175.161,53.501,172.382,47.48z"/>
<linearGradient id="SVGID_2_-i2" gradientUnits="userSpaceOnUse" x1="142.2098" y1="100.086" x2="293.2098" y2="81.086">
	<stop offset="0" style="stop-color:#A1C3FC"/>
	<stop offset="1" style="stop-color:#78A9EF"/>
</linearGradient>
<path fill="url(#SVGID_2_-i2)" d="M183.897,48.534c5.919,3.588,5.659,7.931,10.659,12.717c7.515,7.194,13.583,13.928,21.606,20.55  c5.902,4.871,10.77,10.866,15.35,16.997c6.973,9.335,17.932,9.159,23.725,19.268c-11.347,9.472-29.352,26.342-43.649,30.091  c0.608-5.011-2.363-9.89-6.278-13.077c-3.915-3.187-8.706-5.051-13.291-7.165c-14.738-6.792-30.367-15.835-36.902-30.688  c-10.714-24.348-17.458-29.997-11.579-45.123c1.036-2.665,8.412-6.933,11.097-7.917c1.97-0.722,2.319-3.32,4.376-2.903  C164.236,42.344,179.338,45.77,183.897,48.534z"/>
<path fill="none" stroke="#000000" stroke-miterlimit="10" d="M176.193,110.961c-0.856-0.269-1.506,0.766-1.807,1.61  c-6.355,17.797-12.71,35.594-19.065,53.391"/>
<path fill="#F2A19C" d="M137.674,41.404c1.574-1.008,3.751-0.438,5.175,0.773s2.229,3.015,3.178,4.625  c2.603,4.416,1.042,2.691,5.085,5.843c4.328-1.623,11.071-5.935,14.391-10.82c-6.294-6.044-7.885-9.155-11.19-17.231  C150.741,31.774,144.817,37.759,137.674,41.404z"/>
<path fill="none" stroke="#000000" stroke-miterlimit="10" d="M142.528,12.151c-3.231,5.58-6.463,11.16-9.694,16.74  c-1.652,2.852-3.317,6.428-1.627,9.258c1.733,2.9,5.803,3.052,9.175,2.856c2.488-0.144,5.798-1.176,5.555-3.656"/>
<path fill="none" stroke="#000000" stroke-miterlimit="10" d="M140.26,29.62c0.747-1.893,0.658-3.993,0.767-6.025  c0.109-2.032,0.501-4.203,1.943-5.639c1.441-1.436,4.227-1.624,5.319,0.093c0.34,3.479-0.382,7.054-2.046,10.128  c-0.633,1.17-1.476,2.331-2.72,2.803C142.278,31.45,140.587,30.909,140.26,29.62z"/>
<path fill="#FFBEB6" d="M150.075,37.912c2.541-2.663,5.083-5.325,7.624-7.988c1.711-1.792,3.454-3.632,4.462-5.895  c1.932-4.334,0.653-9.797-2.801-13.051c-3.454-3.254-8.775-4.241-13.277-2.74c-6.531,2.177-11.635,10.125-16.423,15.07  c-1.489,1.895,2.235,3.208,1.38,5.623c-1.027,2.9-1.804,6.052-1.035,9.03c0.769,2.978,2.632,5.375,6.605,5.28  c1.214-0.029,3.395-0.215,4.553-0.581c2.444-0.773,4.112-1.157,6.312-2.473C148.467,39.594,149.278,38.748,150.075,37.912z"/>
<g>
	<path fill="#23286B" d="M141.126,26.656c-0.697,0-1.371-0.139-2.004-0.412c-2.894-1.25-4.071-4.991-2.625-8.34   c1.09-2.522,3.448-4.217,5.869-4.217c0.696,0,1.371,0.138,2.003,0.412c2.894,1.25,4.071,4.992,2.625,8.34   C145.904,24.961,143.546,26.656,141.126,26.656z M142.366,14.687c-2.027,0-4.017,1.452-4.951,3.613   c-1.228,2.843-0.284,5.995,2.104,7.026c0.507,0.219,1.047,0.33,1.607,0.33c2.026,0,4.017-1.452,4.95-3.614   c1.228-2.843,0.284-5.994-2.104-7.026C143.465,14.798,142.925,14.687,142.366,14.687z"/>
</g>
<path fill="#23286B" d="M148.516,64.331c0,0-0.755-6.531-1.262-9.569c2.339,0.623,4.799,0.79,7.201,0.488  c-1.927,3.657-2.253,5.56-3.018,9.622C150.35,64.372,148.516,64.331,148.516,64.331z"/>
<path fill="#151A4F" d="M151.366,64.41c-1.049,0.3-2.269-0.174-2.841-1.103c-1.595,6.678,0.458,13.611,1.041,20.452  c0.747,8.766-0.942,17.534-1.482,26.315s0.239,18.129,5.265,25.35c-0.622-14.98,0.052-30.014,2.011-44.878  c0.315-2.39,0.664-4.804,0.428-7.203C155.149,76.829,150.273,70.864,151.366,64.41z"/>
<path fill="#EEEEEE" d="M172.211,44.206c-2.813-0.866-6.845-3.157-9.305-5.194c-2.665,5.72-5.899,11.166-11.794,13.417  c1.524,5.565,2.767,11.41,2.444,17.17c5.883-6.672,9.674-9.224,14.76-16.521C170.805,49.508,173.314,44.545,172.211,44.206z"/>
<g>
	<path fill="#428DFC" d="M159.703,33.281c-0.197,0-0.385-0.118-0.464-0.313c-0.104-0.256,0.021-0.547,0.276-0.651   c9.277-3.756,17.586-16.611,17.78-27.51c0.005-0.276,0.243-0.463,0.509-0.491c0.276,0.005,0.496,0.233,0.491,0.509   c-0.2,11.251-8.801,24.532-18.405,28.419C159.829,33.27,159.765,33.281,159.703,33.281z"/>
</g>
<linearGradient id="SVGID_3_-i2" gradientUnits="userSpaceOnUse" x1="151.4296" y1="81.8718" x2="179.4296" y2="124.8718">
	<stop offset="0" style="stop-color:#A1C3FC"/>
	<stop offset="1" style="stop-color:#78A9EF"/>
</linearGradient>
<path fill="url(#SVGID_3_-i2)" d="M193.905,68.066c0.418-7.864-5.952-21.074-14-20.167c-9.226,1.04-8.562,5.599-9.887,14.643  c-1.621,11.069-5.037,34.068-8.113,46.857c-5.072,21.089-9.375,32.167-15.375,51.5c6.839,6.521,12.493,5.958,20.259,11.42  c2.885-12.009,4.449-11.586,8.449-34.253c1.459-8.268,5.835-31.243,8-39.333C187.319,83.487,193.068,83.811,193.905,68.066z"/>
<g>
	<path fill="#23286B" d="M130.516,22.655c-0.249,0-0.487-0.048-0.707-0.143c-1.582-0.684-1.779-3.505-0.459-6.562   c1.279-2.96,3.56-4.824,5.093-4.163c1.583,0.684,1.78,3.505,0.46,6.562C133.807,20.884,132.004,22.655,130.516,22.655z    M133.736,12.644c-0.905,0-2.429,1.298-3.468,3.703c-1.132,2.62-0.941,4.868-0.063,5.248c0.858,0.368,2.609-0.937,3.779-3.642   c1.132-2.619,0.94-4.868,0.062-5.248C133.952,12.664,133.85,12.644,133.736,12.644z"/>
</g>
<path fill="#EEEEEE" d="M151.221,52.537c0,0-6.93,9.427-7.466,14.174c-0.161-5.483-1.407-9.413-0.541-14.499  c1.56-2.708,1.361-2.702,2.921-5.41C147.264,50.232,151.221,52.537,151.221,52.537z"/>
<path fill="#428DFC" d="M174.078,4.388h-35.103c-4.416,4.239-1.932,6.786-1.601,10.124c1.916-2.822,9.844-1.793,12.445,0.605  c2.601,2.398,2.656,6.203,1.077,9.171c1.806-1.203,4.67,0.287,5.166,2.185c0.496,1.898-0.544,3.816-1.556,5.561  c-0.413,0.711-0.825,1.423-1.238,2.134c2.653,0.552,5.503-0.24,7.708-1.604c2.206-1.364,3.874-3.248,5.451-5.135  c5.071-6.066,9.746-13.134,8.598-20.498C174.978,6.62,174.37,4.535,174.078,4.388z"/>
<g>
	<path fill="#428DFC" d="M246.992,341.407l-0.873-0.486c2.796-5.012,4.338-10.692,4.459-16.43c0.063-3.028-0.269-6.112-0.59-9.096   c-0.355-3.298-0.723-6.709-0.564-10.092c0.21-4.527,1.355-8.98,2.464-13.286c1.031-4.011,2.099-8.157,2.391-12.319   c0.53-7.544-1.461-15.089-3.388-22.386c-0.455-1.726-0.909-3.447-1.332-5.169c-3.462-14.104-4.825-28.605-4.053-43.103   c0.377-7.086,1.271-14.33,2.137-21.334c2.067-16.742,4.205-34.053-0.642-50.246l0.957-0.287   c4.908,16.395,2.757,33.812,0.677,50.656c-0.863,6.988-1.755,14.214-2.131,21.265c-0.767,14.399,0.588,28.804,4.025,42.812   c0.422,1.716,0.875,3.433,1.328,5.151c1.947,7.376,3.961,15.003,3.419,22.712c-0.299,4.252-1.378,8.444-2.421,12.498   c-1.095,4.257-2.228,8.659-2.434,13.084c-0.153,3.306,0.21,6.677,0.561,9.938c0.325,3.015,0.66,6.132,0.596,9.225   C251.453,330.412,249.867,336.254,246.992,341.407z"/>
</g>
<path id="texture_4_-i2" opacity="0.86" fill="#FFFFFF" enable-background="new    " d="M214.381,103.433  c-0.072-0.158-0.303-0.242-0.461-0.17l0,0c-0.158,0.072-0.244,0.303-0.171,0.46l0,0c0.072,0.158,0.303,0.242,0.461,0.17l0,0  C214.369,103.821,214.49,103.67,214.381,103.433L214.381,103.433z M197.279,74.591c0.085-0.23,0.013-0.387-0.218-0.474  c-0.152-0.122-0.388-0.013-0.51,0.138l0,0c-0.085,0.23-0.013,0.387,0.218,0.474C196.999,74.815,197.157,74.742,197.279,74.591  L197.279,74.591z M193.837,82.477c0.085-0.23,0.013-0.387-0.218-0.474c-0.23-0.086-0.388-0.013-0.474,0.217l0,0  c-0.122,0.152-0.013,0.387,0.218,0.474l0,0C193.558,82.7,193.795,82.591,193.837,82.477L193.837,82.477z M209.828,87.941  c-0.152-0.122-0.345-0.128-0.467,0.023c-0.122,0.152-0.127,0.344,0.024,0.467c0.152,0.122,0.345,0.128,0.467-0.023  C210.01,88.336,209.98,88.063,209.828,87.941z M203.69,93.912c-0.152-0.122-0.345-0.128-0.467,0.023  c-0.122,0.152-0.127,0.345,0.023,0.467c0.152,0.122,0.345,0.128,0.467-0.023C203.835,94.228,203.841,94.033,203.69,93.912z   M179.899,74.827c0.007-0.194-0.146-0.316-0.339-0.321c-0.194-0.007-0.316,0.145-0.321,0.339l0,0  c-0.007,0.194,0.145,0.315,0.26,0.358l0,0C179.771,75.172,179.892,75.021,179.899,74.827z M215.573,94.191  c-0.072-0.158-0.267-0.164-0.423-0.092c-0.158,0.072-0.164,0.267-0.092,0.423c0.072,0.158,0.267,0.164,0.423,0.092l0,0  C215.603,94.464,215.646,94.349,215.573,94.191L215.573,94.191z M209.552,98.962c-0.072-0.158-0.267-0.164-0.423-0.092  c-0.158,0.072-0.164,0.267-0.092,0.423c0.072,0.158,0.267,0.164,0.423,0.092l0,0C209.696,99.277,209.703,99.084,209.552,98.962  L209.552,98.962z M187.429,78.729c0.007-0.194-0.145-0.315-0.26-0.358c-0.194-0.007-0.351,0.066-0.358,0.26l0,0  c-0.007,0.194,0.066,0.351,0.26,0.358l0,0C187.186,79.031,187.344,78.958,187.429,78.729z M212.456,112.535  c-0.072-0.158-0.224-0.278-0.381-0.207l0,0c-0.158,0.072-0.279,0.224-0.207,0.381l0,0c0.072,0.158,0.224,0.279,0.381,0.207l0,0  C212.406,112.844,212.527,112.692,212.456,112.535z M201.718,87.554c0.122-0.152,0.013-0.387-0.102-0.431  c-0.152-0.122-0.309-0.049-0.431,0.102c-0.122,0.152-0.049,0.309,0.102,0.431C201.439,87.778,201.676,87.669,201.718,87.554  L201.718,87.554z M198.005,94.228c0.122-0.152,0.049-0.309-0.102-0.431l0,0c-0.152-0.122-0.309-0.049-0.431,0.102  c-0.122,0.152-0.049,0.309,0.102,0.431C197.726,94.451,197.884,94.379,198.005,94.228L198.005,94.228z M213.277,108.718  c-0.037-0.079-0.23-0.086-0.309-0.049l0,0c-0.079,0.036-0.085,0.23-0.049,0.309l0,0c0.037,0.079,0.23,0.086,0.309,0.049l0,0  C213.387,108.953,213.35,108.876,213.277,108.718L213.277,108.718z M194.459,98.149c0.043-0.116-0.072-0.158-0.188-0.2l0,0  c-0.116-0.043-0.237,0.109-0.2,0.188c-0.042,0.116,0.109,0.237,0.188,0.2C194.373,98.377,194.416,98.263,194.459,98.149  L194.459,98.149L194.459,98.149z M215.646,119.67c-0.037-0.079-0.188-0.2-0.267-0.164l0,0c-0.079,0.036-0.2,0.188-0.164,0.267  c0.037,0.079,0.188,0.2,0.267,0.164l0,0C215.639,119.864,215.682,119.748,215.646,119.67L215.646,119.67z M218.462,86.559  c0.122-0.152,0.013-0.387-0.139-0.51c-0.152-0.122-0.388-0.013-0.51,0.138c-0.122,0.152-0.013,0.387,0.139,0.51  C218.104,86.819,218.341,86.711,218.462,86.559z M214.208,94.34c0.122-0.152,0.013-0.387-0.139-0.51  c-0.152-0.122-0.388-0.013-0.51,0.138c-0.122,0.152-0.013,0.387,0.139,0.51C213.929,94.564,214.087,94.491,214.208,94.34  L214.208,94.34z M210.033,102.084c0.122-0.152,0.013-0.387-0.139-0.51c-0.152-0.122-0.388-0.013-0.51,0.138  c-0.122,0.152-0.013,0.387,0.139,0.51C209.675,102.345,209.912,102.236,210.033,102.084z M216.35,112.276  c-0.152-0.122-0.381-0.207-0.503-0.056c-0.122,0.152-0.207,0.381-0.055,0.502c0.152,0.122,0.381,0.207,0.503,0.056  C216.417,112.628,216.502,112.397,216.35,112.276L216.35,112.276z M200.52,84.952c0.007-0.194-0.181-0.394-0.376-0.401  c-0.194-0.007-0.395,0.181-0.4,0.375c-0.007,0.194,0.102,0.431,0.297,0.437l0,0C200.313,85.333,200.434,85.182,200.52,84.952  L200.52,84.952L200.52,84.952z M199.613,93.776c0.007-0.194-0.102-0.431-0.376-0.401l0,0c-0.194-0.007-0.316,0.145-0.437,0.296l0,0  c-0.007,0.194,0.102,0.431,0.297,0.437C199.408,94.157,199.528,94.006,199.613,93.776L199.613,93.776z M217.078,118.63  c-0.152-0.122-0.381-0.207-0.503-0.056c-0.122,0.152-0.207,0.381-0.055,0.502c0.072,0.158,0.303,0.242,0.503,0.056l0,0  C217.181,119.061,217.266,118.831,217.078,118.63L217.078,118.63z M206.532,84.103c0.007-0.194-0.102-0.431-0.297-0.437  c-0.195-0.006-0.431,0.102-0.437,0.296c-0.007,0.194,0.066,0.351,0.297,0.437C206.289,84.406,206.526,84.298,206.532,84.103  L206.532,84.103z M205.202,92.837c0.007-0.194-0.102-0.431-0.297-0.437c-0.194-0.007-0.353,0.066-0.437,0.296  c-0.007,0.194,0.102,0.431,0.297,0.437C205.037,93.103,205.196,93.03,205.202,92.837z M203.949,101.532  c0.007-0.194-0.102-0.431-0.297-0.437c-0.194-0.007-0.431,0.102-0.437,0.296c-0.007,0.194,0.102,0.431,0.297,0.437l0,0  C203.742,101.914,203.943,101.726,203.949,101.532L203.949,101.532z M217.641,102.416c0.122-0.152,0.013-0.387-0.139-0.51l0,0  c-0.152-0.122-0.388-0.013-0.51,0.138c-0.122,0.152-0.013,0.387,0.139,0.51C217.36,102.639,217.518,102.567,217.641,102.416  L217.641,102.416z M213.12,110.033c0.122-0.152,0.013-0.387-0.139-0.51c-0.152-0.122-0.388-0.013-0.51,0.138l0,0  c-0.122,0.152-0.013,0.387,0.139,0.51C212.84,110.257,212.998,110.185,213.12,110.033L213.12,110.033L213.12,110.033z   M201.253,98.374c0.007-0.194-0.109-0.237-0.303-0.242c-0.194-0.007-0.237,0.109-0.244,0.303c-0.007,0.194,0.109,0.237,0.303,0.242  l0,0C201.168,98.605,201.247,98.568,201.253,98.374z M214.333,103.742c0.042-0.116-0.03-0.273-0.145-0.315  c-0.116-0.043-0.273,0.029-0.315,0.145c-0.042,0.116,0.03,0.273,0.145,0.315l0,0C214.132,103.93,214.289,103.857,214.333,103.742  L214.333,103.742L214.333,103.742z M212.149,110c0.042-0.116-0.03-0.273-0.181-0.394c-0.116-0.043-0.273,0.03-0.315,0.145l0,0  c-0.042,0.116,0.03,0.273,0.145,0.314l0,0C211.984,110.267,212.142,110.194,212.149,110L212.149,110L212.149,110z"/>

        </g>
    </g>
</g>

<!-- ITEM 3 -->
<g>
    <defs>
        
        <clipPath id="clip-path-id-viewbox-item-3">
            <rect x="0.0" y="0.0" width="400.0" height="300.0"/>
        </clipPath>
    </defs>
    <g transform="translate(373.0 812.0) rotate(0.0 336.0 252.0) scale(1.68 1.68)">
        <g clip-path="url(#clip-path-id-viewbox-item-3)" transform="translate(-0.0 -0.0)">

<linearGradient id="SVGID_1_-i3" gradientUnits="userSpaceOnUse" x1="2412.5486" y1="3991.811" x2="7661.8921" y2="3991.811" gradientTransform="matrix(0.0762 0 0 0.0762 -183.8362 -154.176)">
	<stop offset="0" style="stop-color:#eeeeee"/>
	<stop offset="0.6955" style="stop-color:#ced9e4"/>
	<stop offset="1" style="stop-color:#c5d4e1"/>
</linearGradient>
<polygon fill="url(#SVGID_1_-i3)" points="0.073,0 0,299.998 7.511,300 7.583,7.559 392.944,7.559 392.944,300 400,300 400,7.559   400,1.265 400,0 "/>

        </g>
    </g>
</g>

<!-- ITEM 4 -->
<g>
    <defs>
        
        <clipPath id="clip-path-id-viewbox-item-4">
            <rect x="0.0" y="0.0" width="100.0" height="100.0"/>
        </clipPath>
    </defs>
    <g transform="translate(627.0 952.0) rotate(0.0 93.0 93.0) scale(1.86 1.86)">
        <g clip-path="url(#clip-path-id-viewbox-item-4)" transform="translate(-0.0 -0.0)">

<circle fill="#f4f4f4" cx="50" cy="50" r="50"/>

        </g>
    </g>
</g>

<!-- ITEM 5 -->
<g>
    <defs>
        
        <clipPath id="clip-path-id-viewbox-item-5">
            <rect x="0.0" y="0.0" width="250.0" height="250.0"/>
        </clipPath>
    </defs>
    <g transform="translate(487.0 283.0) rotate(0.0 123.0 123.0) scale(0.984 0.984)">
        <g clip-path="url(#clip-path-id-viewbox-item-5)" transform="translate(-0.0 -0.0)">

<linearGradient id="SVGID_1_-i5" gradientUnits="userSpaceOnUse" x1="51.6125" y1="175.3757" x2="118.2842" y2="81.9238" gradientTransform="matrix(1 0 0 -1 0 252)">
	<stop offset="0" style="stop-color:#C8DCFD"/>
	<stop offset="1" style="stop-color:#9ABEF3"/>
</linearGradient>
<path fill="url(#SVGID_1_-i5)" d="M122.428,138.248L0,126.854c8.142-8.099,12.559-26.308,13.913-52.827V53.311h108.515V138.248z"/>
<rect x="13.913" y="53.311" fill="#C2D8FD" width="108.515" height="18.645"/>
<linearGradient id="SVGID_2_-i5" gradientUnits="userSpaceOnUse" x1="119.3366" y1="18.9519" x2="189.5653" y2="-79.4859" gradientTransform="matrix(0.8641 0.1531 0.1745 -0.9847 7.9082 176.9885)">
	<stop offset="0" style="stop-color:#C8DCFD"/>
	<stop offset="1" style="stop-color:#9ABEF3"/>
</linearGradient>
<path fill="url(#SVGID_2_-i5)" d="M170.924,250L55.556,217.845c9.208-6.582,16.596-23.757,22.49-49.637l3.591-20.399l104.008,18.557  L170.924,250z"/>
<polygon fill="#C2D8FD" points="81.638,147.817 185.65,166.375 182.419,184.734 78.406,166.176 "/>
<linearGradient id="SVGID_3_-i5" gradientUnits="userSpaceOnUse" x1="70.9232" y1="272.6543" x2="136.71" y2="180.4428" gradientTransform="matrix(0.8565 -0.1417 -0.1632 -0.9866 149.914 308.7003)">
	<stop offset="0" style="stop-color:#A1C3FC"/>
	<stop offset="1" style="stop-color:#78A9EF"/>
</linearGradient>
<path fill="url(#SVGID_3_-i5)" d="M250,63.669c-25.745,11.748-49.347,40.055-109.431,38.582c-5.795-19.744-7.985-38.26-10.998-64.637  l-3.359-20.439L229.312,0l3.753,22.837C231.415,41.66,235.959,56.057,250,63.669z"/>
<polygon fill="#A1C3FC" points="126.213,17.181 229.314,0.01 232.336,18.405 129.235,35.576 "/>
<g>
	<path fill="#E94A47" d="M87.833,88.235c-3.281,0-5.521-2.542-6.878-4.708l-2.651,2.488c-0.451,0.423-1.065,0.62-1.677,0.538   c-0.61-0.083-1.152-0.436-1.476-0.964c-1.561-2.545-3.649-5.436-6.128-5.313c-1.197,0.065-2.435,0.869-3.747,1.719   c-1.631,1.058-3.478,2.256-5.772,2.374c-1.072,0.044-1.987-0.711-2.141-1.767l-0.439-2.997c-0.502,0.374-1.036,0.69-1.584,0.938   c-2.701,1.227-5.695,1.145-8.102,1.076l-24.385-0.681c-1.136-0.031-2.031-0.984-1.999-2.129c0.031-1.144,0.95-2.046,2.114-2.013   l24.385,0.681c2.09,0.059,4.457,0.124,6.295-0.711c1.263-0.574,2.464-1.927,2.39-3.218l-0.061-0.411   c-0.163-1.107,0.578-2.144,1.672-2.342c1.091-0.195,2.146,0.516,2.377,1.611c0.05,0.237,0.085,0.473,0.107,0.707l0.963,6.57   c0.634-0.317,1.284-0.739,1.952-1.172c1.626-1.054,3.468-2.249,5.752-2.374c3.735-0.205,6.429,2.346,8.471,5.181l2.821-2.649   c0.477-0.449,1.136-0.642,1.783-0.521c0.643,0.121,1.189,0.543,1.473,1.136c1.576,3.29,3.036,4.845,4.574,4.803   c0.7-0.027,1.53-0.433,2.333-0.826l7.759-3.798c1.022-0.499,2.252-0.073,2.75,0.957c0.497,1.03,0.071,2.268-0.951,2.769   l-7.76,3.798c-1.075,0.525-2.413,1.18-3.975,1.24C87.997,88.232,87.915,88.235,87.833,88.235z"/>
</g>
<g>
	<path fill="#E94A47" d="M79.895,119.285c-0.239,0-0.477-0.041-0.707-0.126c-7.653-2.816-14.239-8.585-18.069-15.826   c-0.317-0.599-0.734-1.388-1.017-1.5c-0.079-0.034-0.549-0.125-2.06,1.135l-11.114,9.266c-0.597,0.496-1.989,1.664-3.771,1.306   c-2.035-0.408-2.825-2.411-3.122-3.164l-3.253-8.244c-5.144,2.54-9.548,6.758-12.273,11.811c-0.542,1.005-1.79,1.38-2.79,0.833   c-0.999-0.546-1.369-1.803-0.827-2.809c3.503-6.499,9.427-11.794,16.252-14.525c0.506-0.204,1.073-0.195,1.575,0.023   c0.501,0.218,0.896,0.627,1.097,1.137l4.043,10.245c0.068,0.173,0.127,0.307,0.176,0.411c0.074-0.057,0.163-0.127,0.267-0.214   l11.114-9.266c0.944-0.788,3.456-2.881,6.189-1.8c1.698,0.671,2.511,2.21,3.106,3.335c3.04,5.748,7.983,10.403,13.795,13.089   c0.973-3.276,2.37-6.401,4.169-9.317c0.6-0.972,1.867-1.27,2.833-0.667c0.965,0.604,1.262,1.881,0.663,2.853   c-1.986,3.218-3.424,6.722-4.274,10.413c-0.133,0.578-0.506,1.071-1.025,1.354C80.571,119.201,80.234,119.285,79.895,119.285z"/>
</g>
<g>
	<path fill="#23286B" d="M186.84,63.688c-3.84,0-6.714-3.405-7.406-6.92c-3.876,1.223-7.86,2.208-12.002,2.535   c-7.859,0.617-14.854-1.411-19.714-5.714c-0.853-0.755-0.936-2.065-0.186-2.924c0.75-0.859,2.051-0.943,2.904-0.187   c3.959,3.506,10.035,5.218,16.674,4.693c4.18-0.329,8.297-1.428,12.334-2.76c0.363-2.168,1.157-4.194,1.845-5.947   c0.292-0.745,0.985-1.253,1.779-1.306c0.802-0.054,1.547,0.36,1.934,1.06l2.808,5.077c0.293,0.531,0.341,1.166,0.128,1.736   c-0.212,0.57-0.663,1.016-1.23,1.221c-1.096,0.396-2.2,0.796-3.311,1.186c0.008,0.081,0.017,0.162,0.028,0.241   c0.258,1.949,1.883,4.015,3.639,3.856c1.322-0.117,2.592-1.349,3.765-2.662c3.615-4.042,6.801-8.489,9.472-13.214   c0.447-0.789,1.353-1.195,2.234-0.999c0.882,0.197,1.533,0.95,1.606,1.856c0.038,0.476,0.321,0.895,0.836,1.243   c0.858,0.578,2.132,0.765,3.099,0.454c2.051-0.661,3.666-2.586,5.416-4.849c0.698-0.903,1.99-1.065,2.888-0.363   c0.897,0.702,1.058,2.004,0.36,2.908c-1.679,2.172-3.978,5.146-7.408,6.25c-2.18,0.704-4.725,0.336-6.642-0.958   c-0.216-0.145-0.42-0.3-0.612-0.463c-2.413,3.862-5.158,7.519-8.188,10.907c-1.737,1.942-3.722,3.775-6.462,4.017   C187.226,63.678,187.032,63.688,186.84,63.688z"/>
</g>
<g>
	<path fill="#23286B" d="M96.445,209.084c-0.112,0-0.225-0.009-0.338-0.028c-0.866-0.146-1.545-0.829-1.691-1.701   c-1.353-8.109-1.94-16.34-1.757-24.556c-2.987,5.473-4.894,11.655-6.635,17.294c-0.337,1.092-1.491,1.704-2.575,1.363   c-1.085-0.34-1.692-1.501-1.355-2.594c2.529-8.195,5.396-17.485,11.421-24.696c0.576-0.69,1.529-0.924,2.357-0.583   c0.827,0.343,1.341,1.185,1.27,2.082c-0.658,8.275-0.502,16.607,0.461,24.849l6.259-11.628c0.396-0.735,1.191-1.17,2.017-1.073   c0.826,0.084,1.521,0.661,1.761,1.461c0.44,1.469,1.755,2.656,3.515,3.178c1.761,0.523,3.506,0.238,4.665-0.754   c0.535-0.457,1.263-0.61,1.935-0.404c0.671,0.207,1.191,0.744,1.38,1.424l2.508,9.032c0.808-0.512,1.888-0.405,2.577,0.314   c0.79,0.823,0.767,2.135-0.05,2.929l-2.164,2.102c-0.522,0.508-1.27,0.705-1.969,0.509c-0.7-0.192-1.247-0.739-1.442-1.442   l-2.724-9.811c-1.8,0.629-3.856,0.672-5.878,0.074c-1.644-0.487-3.077-1.342-4.187-2.458l-7.552,14.03   C97.89,208.675,97.19,209.084,96.445,209.084z"/>
</g>
<g>
	<path fill="#23286B" d="M148.893,216.4c-0.076,0-0.152-0.004-0.229-0.013c-0.84-0.094-1.537-0.695-1.758-1.516l-4.574-16.987   c-0.297-1.104,0.351-2.243,1.448-2.542c1.097-0.293,2.227,0.354,2.525,1.457l3.209,11.92l11.667-22.195   c0.532-1.011,1.777-1.398,2.781-0.862c1.005,0.536,1.388,1.789,0.856,2.8l-14.106,26.835   C150.352,215.982,149.648,216.4,148.893,216.4z"/>
</g>

        </g>
    </g>
</g>

<!-- ITEM 6 -->
<g>
    <defs>
        
        <clipPath id="clip-path-id-viewbox-item-6">
            <rect x="-343.543" y="748.354" width="103.828" height="48.248"/>
        </clipPath>
    </defs>
    <g transform="translate(379.0 660.0) rotate(0.0 171.0 79.5) scale(3.29390915745271 3.2954733874979274)">
        <g clip-path="url(#clip-path-id-viewbox-item-6)" transform="translate(343.543 -748.354)">

<rect x="-286.495" y="789.769" fill="#89B3F4" width="46.78" height="6.833"/>
<polygon fill="#A1C3FC" points="-343.543,748.354 -285.409,748.354 -272.006,796.602 -330.14,796.602 "/>
<circle fill="#89B3F4" cx="-309.512" cy="773.308" r="4.993"/>

        </g>
    </g>
</g>

<!-- ITEM 7 -->
<g>
    <defs>
        
        <clipPath id="clip-path-id-viewbox-item-7">
            <rect x="0.0" y="0.0" width="205.0" height="350.0"/>
        </clipPath>
    </defs>
    <g transform="translate(75.0 794.0) rotate(0.0 153.5 261.5) scale(1.497560975609756 1.4942857142857142)">
        <g clip-path="url(#clip-path-id-viewbox-item-7)" transform="translate(-0.0 -0.0)">

<linearGradient id="SVGID_1_-i7" gradientUnits="userSpaceOnUse" x1="229.5354" y1="2296.8765" x2="923.9109" y2="2296.8765" gradientTransform="matrix(0.1438 0 0 0.1438 -33.0072 -154.7435)">
	<stop offset="0" style="stop-color:#B9D3FD"/>
	<stop offset="1" style="stop-color:#89B3F4"/>
</linearGradient>
<path fill="url(#SVGID_1_-i7)" d="M98.974,59.468c0.249-0.3,0.498-0.599,0.747-0.898c-0.165-0.01-0.332-0.012-0.498-0.021  c2.379-9.742-2.305-20.061-8.91-27.655c-2.928-3.366-6.391-6.479-10.644-7.811c-4.439-1.391-9.256-0.698-13.764,0.449  C52.751,26.877,40.59,34.056,31.293,43.964c-3.02,3.219-5.915,7.357-5.057,11.691c0.959,4.841,6.405,9.242,4.174,13.641  c-2.301,4.534-10.146,2.886-12.964,7.117c-4.343,6.518,9.109,14.335,5.656,21.366c-1.771,3.604-6.649,3.906-10.321,5.516  c-7.044,3.089-9.866,13.149-5.458,19.463c3.922,5.618,12.606,9.611,10.967,16.266c-0.575,2.333-2.401,4.11-4.08,5.825  c-5.52,5.635-10.365,12.163-12.741,19.69c-2.377,7.528-2.025,16.177,2.226,22.825c2.178,3.406,5.245,6.136,8.375,8.691  c15.598,12.734,21.64,26.114,34.155,41.899c7.821,9.863,25.209,73.056,29.462,90.834c3.226-25.873,10.654-102.823,13.776-107.093  c3.121-4.27,4.745-10.272,2.09-14.847c-1.936-3.335-5.626-5.139-8.77-7.368c-3.143-2.228-6.112-5.736-5.355-9.518  c0.349-1.747,1.454-3.238,2.578-4.617c3.575-4.382,7.728-8.386,10.33-13.41c2.602-5.024,3.346-11.543,0.014-16.114  c-3.126-4.289-9.135-6.176-13.824-8.806c4.002-3.075,9.875-5.172,13.203-9.142c2.539-3.027,3.468-7.336,2.402-11.142  c-1.124-4.018-4.163-7.122-6.598-10.533c0.502-1.982,0.353-3.971-0.822-5.769c-0.624-0.955-1.463-1.709-2.423-2.342  c-0.129-2.01,0.321-3.947,1.652-5.487c2.029-2.345,5.461-2.974,7.709-5.11c3.564-3.386,2.361-10.326-2.133-12.311  c-2.586-1.141-6.399-1.438-6.819-4.238c-0.049-0.325-0.03-0.644,0.026-0.955C89.384,73.793,96.504,67.956,98.974,59.468z"/>
<linearGradient id="SVGID_2_-i7" gradientUnits="userSpaceOnUse" x1="671.1075" y1="2451.2043" x2="1213.2162" y2="2451.2043" gradientTransform="matrix(0.1438 0 0 0.1438 -33.0072 -154.7435)">
	<stop offset="0" style="stop-color:#DEEAFE"/>
	<stop offset="1" style="stop-color:#E9F1FE"/>
</linearGradient>
<path fill="url(#SVGID_2_-i7)" d="M133.622,207.735c-1.846-4.632-6.134-8.202-6.993-13.115c-1.246-7.132,5.017-13.025,9.048-19.034  c6.076-9.055,7.476-21.088,3.642-31.3c-3.834-10.212-12.801-18.338-23.326-21.136c-6.696-1.78-14.072-1.589-20.024-5.142  c-8.106-4.838-14.575-16.443-23.47-13.29c-6.219,2.204-7.68,10.69-5.624,16.971c2.056,6.281,6.442,11.613,8.362,17.937  c3.671,12.085-2.23,24.722-6.921,36.446c-4.691,11.724-7.915,26.2-0.089,36.102c3.816,4.829,9.922,7.97,12.136,13.716  c3.013,7.814-2.49,16.006-5.197,23.931c-5.039,14.75,0.715,32.506,13.442,41.477c0.431-18.77,9.152-37.198,23.385-49.411  c5.505-4.725,11.811-8.586,16.56-14.075C133.303,222.323,136.31,214.481,133.622,207.735z"/>
<g>
	<path fill="#23286B" d="M68.52,319.842c-0.04,0-0.08-0.003-0.119-0.008c-0.465-0.066-0.789-0.497-0.723-0.962   c4.05-28.816,10.15-55.857,18.131-80.372c0.145-0.447,0.627-0.69,1.072-0.545c0.446,0.146,0.69,0.626,0.544,1.074   c-7.952,24.42-14.029,51.364-18.065,80.081C69.3,319.535,68.936,319.842,68.52,319.842z"/>
</g>
<path fill="#C6DDFE" d="M76.658,226.995c2.439-3.598,9.103-3.325,14.883,0.61c5.781,3.935,8.49,10.041,6.051,13.639  c-2.439,3.598-9.103,3.325-14.883-0.61C76.928,236.699,74.219,230.592,76.658,226.995z"/>
<g>
	<path fill="#23286B" d="M88.435,234.165c-0.091,0-0.184-0.014-0.276-0.046c-0.444-0.152-0.68-0.636-0.529-1.082   c4.103-11.998,8.761-23.657,13.842-34.649c0.197-0.427,0.703-0.612,1.128-0.416c0.425,0.198,0.612,0.704,0.415,1.13   c-5.058,10.938-9.693,22.541-13.777,34.484C89.118,233.943,88.788,234.165,88.435,234.165z"/>
</g>
<path fill="#C6DDFE" d="M88.557,183.568c2.439-3.598,11.489-1.7,20.214,4.238c8.725,5.938,13.82,13.669,11.381,17.267  c-2.439,3.598-11.489,1.7-20.214-4.238C91.214,194.896,86.118,187.166,88.557,183.568z"/>
<g>
	<path fill="#23286B" d="M104.03,195.801c-0.124,0-0.248-0.028-0.367-0.084c-0.423-0.203-0.601-0.711-0.4-1.136   c1.539-3.219,3.138-6.431,4.753-9.547c4.439-8.562,9.299-16.945,14.448-24.92c0.254-0.394,0.781-0.508,1.175-0.253   c0.394,0.256,0.507,0.782,0.252,1.177c-5.118,7.93-9.952,16.267-14.367,24.779c-1.607,3.1-3.198,6.295-4.729,9.498   C104.651,195.623,104.346,195.801,104.03,195.801z"/>
</g>
<path fill="#C6DDFE" d="M108.784,141.551c2.885-2.88,12.018,1.616,20.4,10.043c8.382,8.427,12.838,17.594,9.954,20.474  c-2.885,2.88-12.018-1.616-20.4-10.043S105.9,144.431,108.784,141.551z"/>
<g>
	<path fill="#23286B" d="M125.855,157.355c-0.163,0-0.327-0.047-0.473-0.145c-0.39-0.262-0.494-0.79-0.233-1.181   c6.892-10.298,14.412-20.096,22.349-29.122c0.311-0.353,0.846-0.386,1.2-0.076c0.351,0.311,0.386,0.849,0.076,1.202   c-7.888,8.971-15.361,18.71-22.213,28.946C126.397,157.223,126.129,157.355,125.855,157.355z"/>
</g>
<path fill="#C6DDFE" d="M139.931,97.672c5.094-2.225,14.471,8.035,20.945,22.915c6.474,14.881,7.592,28.747,2.499,30.972  c-5.094,2.225-14.471-8.035-20.945-22.915S134.838,99.897,139.931,97.672z"/>
<g>
	<path fill="#23286B" d="M152.311,123.686c-0.207,0-0.414-0.075-0.577-0.227c-0.344-0.319-0.366-0.858-0.047-1.203   c8.162-8.849,16.879-17.059,25.911-24.4c0.365-0.297,0.899-0.24,1.196,0.124c0.296,0.365,0.24,0.902-0.125,1.198   c-8.969,7.29-17.626,15.442-25.734,24.233C152.768,123.594,152.54,123.686,152.311,123.686z"/>
</g>
<path fill="#C6DDFE" d="M160.176,68.748c4.283-3.547,17.487,5.376,29.493,19.929c12.005,14.554,18.266,29.227,13.983,32.775  c-4.283,3.547-17.487-5.376-29.493-19.929S155.893,72.295,160.176,68.748z"/>
<g>
	<path fill="#23286B" d="M182.612,95.82c-0.255,0-0.506-0.114-0.674-0.332c-0.286-0.373-0.218-0.907,0.155-1.194   c5.954-4.603,12.148-8.92,18.412-12.834c0.397-0.248,0.922-0.128,1.171,0.272c0.248,0.399,0.128,0.924-0.271,1.173   c-6.216,3.884-12.365,8.171-18.273,12.738C182.977,95.762,182.793,95.82,182.612,95.82z"/>
</g>
<g>
	<path fill="#1D72D8" d="M83.614,336.134l-3.072-9.355c-0.146-0.448,0.096-0.928,0.542-1.076c0.115-0.038,0.234-0.051,0.347-0.039   c-2.022-45.34-3.106-98.488,2.91-152.53c0.286-2.57,0.59-5.155,0.905-7.682c0.058-0.466,0.487-0.79,0.949-0.74   c0.465,0.059,0.797,0.483,0.739,0.951c-0.313,2.521-0.617,5.098-0.903,7.661c-6.197,55.65-4.845,110.383-2.706,156.584   L83.614,336.134z"/>
</g>
<path fill="#23286B" d="M74.732,165.78c-0.64-2.323,3.858-5.593,10.046-7.303s11.722-1.213,12.362,1.11  c0.64,2.323-3.858,5.593-10.046,7.303C80.906,168.6,75.371,168.103,74.732,165.78z"/>
<g>
	<path fill="#1D72D8" d="M86.567,162.67c-0.037,0-0.074-0.002-0.111-0.007c-0.465-0.062-0.793-0.489-0.732-0.955   c2.064-15.822,4.742-31.309,7.958-46.03c0.1-0.459,0.552-0.75,1.012-0.65c0.458,0.101,0.749,0.554,0.648,1.014   c-3.206,14.674-5.875,30.114-7.933,45.888C87.352,162.358,86.987,162.67,86.567,162.67z"/>
</g>
<path fill="#23286B" d="M79.826,117.243c-0.64-2.323,5.172-5.956,12.98-8.114s14.656-2.024,15.296,0.299  c0.64,2.323-5.172,5.956-12.98,8.114S80.466,119.566,79.826,117.243z"/>
<g>
	<path fill="#1D72D8" d="M95.32,113.074c-0.063,0-0.126-0.007-0.19-0.021c-0.458-0.104-0.745-0.56-0.64-1.019   c3.032-13.401,6.598-26.526,10.598-39.011c0.143-0.448,0.622-0.695,1.068-0.551c0.448,0.144,0.693,0.624,0.55,1.071   c-3.985,12.439-7.538,25.516-10.56,38.868C96.06,112.806,95.709,113.074,95.32,113.074z"/>
</g>
<ellipse transform="matrix(-0.9963 -0.086 0.086 -0.9963 204.9655 148.7545)" fill="#23286B" cx="105.686" cy="69.964" rx="18.512" ry="6.936"/>
<g>
	<path fill="#1D72D8" d="M107.488,69.27c-0.089,0-0.18-0.014-0.269-0.044c-0.446-0.149-0.685-0.631-0.537-1.078   c2.972-8.909,6.243-17.71,9.723-26.158c0.18-0.435,0.675-0.642,1.11-0.462c0.434,0.18,0.64,0.677,0.461,1.113   c-3.465,8.412-6.722,17.175-9.682,26.047C108.175,69.046,107.844,69.27,107.488,69.27z"/>
</g>
<path fill="#23286B" d="M98.871,35.55c0.548-3.456,9.528-4.9,20.058-3.225c10.53,1.675,18.622,5.835,18.074,9.291  c-0.548,3.456-9.528,4.9-20.058,3.225C106.416,43.166,98.324,39.006,98.871,35.55z"/>
<g>
	<path fill="#1D72D8" d="M118.917,39.042c-0.111,0-0.224-0.022-0.333-0.069c-0.432-0.185-0.633-0.685-0.449-1.118   c2.259-5.308,4.651-10.59,7.109-15.699c0.745-1.548,1.5-3.09,2.266-4.627c0.21-0.42,0.718-0.591,1.14-0.381   c0.421,0.21,0.591,0.722,0.381,1.142c-0.763,1.529-1.515,3.066-2.255,4.606c-2.447,5.085-4.827,10.344-7.077,15.628   C119.561,38.848,119.248,39.042,118.917,39.042z"/>
</g>
<path fill="#23286B" d="M106.752,10.612c0.662-4.18,10.948-6.018,22.973-4.105s21.237,6.852,20.574,11.032  c-0.662,4.18-10.948,6.018-22.973,4.105S106.089,14.792,106.752,10.612z"/>
<g>
	<path fill="#1D72D8" d="M131.214,12.991c-0.132,0-0.268-0.031-0.392-0.098c-0.417-0.218-0.577-0.733-0.36-1.15   c2.008-3.846,4.091-7.653,6.19-11.317c0.234-0.408,0.754-0.547,1.161-0.314c0.407,0.234,0.548,0.755,0.314,1.163   c-2.088,3.644-4.16,7.433-6.158,11.259C131.817,12.825,131.52,12.991,131.214,12.991z"/>
</g>
<linearGradient id="SVGID_3_-i7" gradientUnits="userSpaceOnUse" x1="538.7717" y1="3216.7576" x2="1002.4527" y2="3216.7576" gradientTransform="matrix(0.1438 0 0 0.1438 -33.0072 -154.7435)">
	<stop offset="0" style="stop-color:#EEEEEE"/>
	<stop offset="1" style="stop-color:#D6D7D8"/>
</linearGradient>
<rect x="44.468" y="265.653" fill="url(#SVGID_3_-i7)" width="66.677" height="84.347"/>

        </g>
    </g>
</g>

              </svg>