<?xml version="1.0" encoding="UTF-8"?><svg version="1.1" xmlns="http://www.w3.org/2000/svg" xmlns:xlink="http://www.w3.org/1999/xlink" viewBox="0 0 1200 1600" width="900" height="400" x="0px" y="0px">
              
              <!-- ITEM 0 -->
<g transform="translate(130.0 244.0) rotate(329.70607786994265 251.5 400.0) scale(2.286363636363636 2.2857142857142856)">
<g transform="translate(-0.0 -0.0)">
<g clip-path="url(#clipPathId-collage-item-0)">
		<defs>
			<clipPath id="clipPathId-collage-item-0">
				<rect x="0.0" y="0.0" width="220.0" height="350.0"/>
			</clipPath>
		</defs>

<linearGradient id="SVGID_1_-i0" gradientUnits="userSpaceOnUse" x1="-472.5338" y1="772.5233" x2="-349.6127" y2="772.5233" gradientTransform="matrix(0.8612 0.5083 0.5083 -0.8612 102.0323 1003.1466)">
	<stop offset="0" style="stop-color:#92C4FE"/>
	<stop offset="1" style="stop-color:#5BABF2"/>
</linearGradient>
<path fill="url(#SVGID_1_-i0)" d="M95.307,205.795c14.729,8.693,25.193,21.497,30.353,35.318c20.508-13.6,41.559-36.241,58.482-64.914  c34.505-58.466,9.547-137.102,9.547-137.102s-80.903,16.157-115.408,74.624c-16.923,28.674-26.569,58.045-28.563,82.573  C64.311,194.13,80.578,197.102,95.307,205.795z"/>
<path fill="#EFEFEF" d="M159.06,129.144c3.903,2.303,7.07,5.374,9.427,8.907c0.907-10.802-4.274-21.683-14.235-27.562  c-13.863-8.181-31.733-3.576-39.916,10.287c-5.879,9.961-5.155,21.99,0.86,31.009c0.356-4.232,1.645-8.451,3.948-12.354  C127.326,125.568,145.198,120.963,159.06,129.144z"/>
<path fill="#FFFFFF" d="M164.539,150.405c2.303-3.903,3.593-8.122,3.948-12.354c-2.356-3.533-5.525-6.604-9.427-8.907  c-13.863-8.181-31.735-3.576-39.916,10.287c-2.303,3.903-3.593,8.122-3.948,12.354c2.356,3.533,5.525,6.604,9.427,8.907  C138.487,168.874,156.358,164.268,164.539,150.405z"/>
<path fill="#FF4945" d="M170.241,177.313l-48.468,59.685l19.214,42.241C167.273,241.909,176.212,208.098,170.241,177.313z"/>
<path fill="#FF4945" d="M86.869,128.108l-28.824,71.278l-46.267,3.596C31.754,161.929,57.034,137.76,86.869,128.108z"/>
<g>
	<path fill="#FF4945" d="M190.566,46.754c-0.269,0-0.54-0.069-0.788-0.215c-0.737-0.435-0.982-1.386-0.547-2.123l25.765-43.654   c0.437-0.737,1.39-0.981,2.124-0.548c0.737,0.435,0.982,1.386,0.547,2.123l-25.765,43.654   C191.611,46.482,191.095,46.754,190.566,46.754z"/>
</g>
<g>
	<path fill="#5BABF2" d="M81.623,328.212c-0.048,0-0.097-0.007-0.146-0.022c-0.274-0.081-0.431-0.367-0.349-0.641   c6.579-22.379,11.33-43.057,15.404-67.046c0.048-0.28,0.314-0.469,0.596-0.423c0.281,0.049,0.471,0.315,0.424,0.596   c-4.081,24.031-8.841,44.745-15.432,67.163C82.053,328.065,81.848,328.212,81.623,328.212z"/>
</g>
<g>
	<path fill="#5BABF2" d="M0.517,280.344c-0.131,0-0.263-0.05-0.364-0.15c-0.203-0.201-0.205-0.528-0.004-0.731   c16.444-16.608,32.278-30.787,51.34-45.97c0.223-0.181,0.549-0.142,0.727,0.082c0.178,0.223,0.141,0.548-0.083,0.726   c-19.028,15.159-34.834,29.312-51.249,45.89C0.783,280.292,0.65,280.344,0.517,280.344z"/>
</g>
<rect x="71.04" y="336.231" transform="matrix(-0.3479 -0.9375 0.9375 -0.3479 -216.9981 533.5798)" fill="#FF4945" width="12.05" height="12.05"/>
<rect x="4.291" y="329.717" transform="matrix(0.7429 -0.6694 0.6694 0.7429 -222.0938 93.2242)" fill="#1B236D" width="12.05" height="12.05"/>
<rect x="9.453" y="247.158" transform="matrix(-0.3479 -0.9375 0.9375 -0.3479 -217.2908 351.3933)" fill="#5BABF2" width="8.212" height="8.212"/>
<g>
	<path fill="#5BABF2" d="M20.482,323.681c-0.089,0-0.18-0.023-0.261-0.071c-0.246-0.146-0.328-0.462-0.183-0.708l36.748-62.267   c0.146-0.246,0.463-0.326,0.708-0.183c0.246,0.146,0.328,0.462,0.183,0.708l-36.748,62.267   C20.83,323.59,20.657,323.681,20.482,323.681z"/>
</g>
<g>
	<path fill="#5BABF2" d="M61.01,311.706c-0.061,0-0.122-0.01-0.181-0.033c-0.268-0.1-0.403-0.398-0.303-0.666l6.347-16.94   c0.1-0.267,0.399-0.405,0.666-0.302c0.268,0.1,0.403,0.398,0.303,0.666l-6.347,16.94C61.416,311.577,61.219,311.706,61.01,311.706z   "/>
</g>
<g>
	<path fill="#FF4945" d="M139.41,169.91c-6.107,0-12.128-1.648-17.413-4.768c-7.894-4.659-13.501-12.113-15.788-20.989   c-2.287-8.875-0.982-18.111,3.677-26.005c6.144-10.411,17.479-16.879,29.58-16.879c6.107,0,12.128,1.648,17.413,4.767   c16.296,9.617,21.728,30.698,12.112,46.993C162.845,163.443,151.511,169.91,139.41,169.91z M139.466,111.607   c-8.462,0-16.385,4.52-20.679,11.796c-3.255,5.516-4.167,11.97-2.569,18.173c1.599,6.202,5.517,11.411,11.033,14.667   c3.695,2.181,7.9,3.333,12.161,3.333c8.462,0,16.386-4.521,20.68-11.797c6.72-11.387,2.923-26.118-8.464-32.838   C147.931,112.759,143.726,111.607,139.466,111.607z"/>
</g>
<path fill="#5BABF2" d="M133.794,76.781c29.573,17.454,51.031,42.866,62.541,70.729c15.081-52.561-2.645-108.413-2.645-108.413  s-37.718,7.538-72.63,30.928C125.354,72.061,129.605,74.31,133.794,76.781z"/>
<linearGradient id="SVGID_2_-i0" gradientUnits="userSpaceOnUse" x1="-452.5461" y1="853.5646" x2="-369.6049" y2="853.5646" gradientTransform="matrix(0.8612 0.5083 0.5083 -0.8612 102.0323 1003.1466)">
	<stop offset="0" style="stop-color:#FF4945"/>
	<stop offset="1" style="stop-color:#F92424"/>
</linearGradient>
<path fill="url(#SVGID_2_-i0)" d="M204.07,103.103c0.888-36.806-8.663-66.916-8.663-66.916s-30.975,6.192-62.767,24.759L204.07,103.103  z"/>

</g>
</g>
</g>

<!-- ITEM 1 -->
<g transform="translate(477.0 857.0) rotate(90.0 119.0 100.5) scale(0.7933333333333333 0.7944664031620553)">
<g transform="translate(-0.0 -0.0)">
<g clip-path="url(#clipPathId-collage-item-1)">
		<defs>
			<clipPath id="clipPathId-collage-item-1">
				<rect x="0.0" y="0.0" width="300.0" height="253.0"/>
			</clipPath>
		</defs>

<polygon fill="#A1C3FC" points="15.652,104.241 0,97.009 7.225,81.34 22.877,88.573 "/>
<polygon fill="#E94A47" points="134.833,123.971 92.215,104.277 111.888,61.615 154.507,81.309 "/>
<polygon fill="#1D72D8" points="280.334,62.356 237.716,42.663 257.389,0 300.008,19.694 "/>
<g>
	<path fill="#23286B" d="M208.486,81.834c-0.612,0-1.216-0.306-1.574-0.863c-27.21-42.667-84.119-63.428-132.379-48.307   c-0.989,0.31-2.03-0.239-2.336-1.225c-0.31-0.986,0.239-2.032,1.224-2.338c49.809-15.615,108.553,5.823,136.644,49.86   c0.552,0.87,0.298,2.024-0.567,2.577C209.18,81.74,208.833,81.834,208.486,81.834z"/>
</g>
<g>
	<path fill="#23286B" d="M12.464,253c-0.041,0-0.078,0-0.119-0.004c-1.026-0.067-1.81-0.952-1.742-1.979   c2.38-37.532,36.079-71.025,73.586-73.139c1.048-0.138,1.91,0.732,1.966,1.759c0.06,1.027-0.728,1.912-1.757,1.968   c-35.717,2.017-67.807,33.909-70.075,69.644C14.259,252.242,13.438,253,12.464,253z"/>
</g>

</g>
</g>
</g>

<!-- ITEM 2 -->
<g transform="translate(286.0 869.0) rotate(262.1945720985689 -103.0 87.0) scale(-0.6866666666666666 0.6877470355731226)">
<g transform="translate(-0.0 -0.0)">
<g clip-path="url(#clipPathId-collage-item-2)">
		<defs>
			<clipPath id="clipPathId-collage-item-2">
				<rect x="0.0" y="0.0" width="300.0" height="253.0"/>
			</clipPath>
		</defs>

<polygon fill="#A1C3FC" points="15.652,104.241 0,97.009 7.225,81.34 22.877,88.573 "/>
<polygon fill="#E94A47" points="134.833,123.971 92.215,104.277 111.888,61.615 154.507,81.309 "/>
<polygon fill="#1D72D8" points="280.334,62.356 237.716,42.663 257.389,0 300.008,19.694 "/>
<g>
	<path fill="#23286B" d="M208.486,81.834c-0.612,0-1.216-0.306-1.574-0.863c-27.21-42.667-84.119-63.428-132.379-48.307   c-0.989,0.31-2.03-0.239-2.336-1.225c-0.31-0.986,0.239-2.032,1.224-2.338c49.809-15.615,108.553,5.823,136.644,49.86   c0.552,0.87,0.298,2.024-0.567,2.577C209.18,81.74,208.833,81.834,208.486,81.834z"/>
</g>
<g>
	<path fill="#23286B" d="M12.464,253c-0.041,0-0.078,0-0.119-0.004c-1.026-0.067-1.81-0.952-1.742-1.979   c2.38-37.532,36.079-71.025,73.586-73.139c1.048-0.138,1.91,0.732,1.966,1.759c0.06,1.027-0.728,1.912-1.757,1.968   c-35.717,2.017-67.807,33.909-70.075,69.644C14.259,252.242,13.438,253,12.464,253z"/>
</g>

</g>
</g>
</g>

<!-- ITEM 3 -->
<g transform="translate(266.0 1097.0) rotate(0.0 22.0 22.0) scale(0.07333333333333333 0.07333333333333333)">
<g transform="translate(-0.0 -0.0)">
<g clip-path="url(#clipPathId-collage-item-3)">
		<defs>
			<clipPath id="clipPathId-collage-item-3">
				<rect x="0.0" y="0.0" width="600.0" height="600.0"/>
			</clipPath>
		</defs>

<rect id="square-2-i3" x="87.63" y="87.638" transform="matrix(0.673 -0.7396 0.7396 0.673 -123.796 319.9735)" fill="#EEEEEE" width="424.722" height="424.722"/>

</g>
</g>
</g>

<!-- ITEM 4 -->
<g transform="translate(210.0 1036.0) rotate(15.172418898927951 17.0 17.0) scale(0.056666666666666664 0.056666666666666664)">
<g transform="translate(-0.0 -0.0)">
<g clip-path="url(#clipPathId-collage-item-4)">
		<defs>
			<clipPath id="clipPathId-collage-item-4">
				<rect x="0.0" y="0.0" width="600.0" height="600.0"/>
			</clipPath>
		</defs>

<rect id="square-2-i4" x="87.63" y="87.638" transform="matrix(0.673 -0.7396 0.7396 0.673 -123.796 319.9735)" fill="#EEEEEE" width="424.722" height="424.722"/>

</g>
</g>
</g>

<!-- ITEM 5 -->
<g transform="translate(64.0 919.0) rotate(0.0 14.5 14.5) scale(0.04833333333333333 0.04833333333333333)">
<g transform="translate(-0.0 -0.0)">
<g clip-path="url(#clipPathId-collage-item-5)">
		<defs>
			<clipPath id="clipPathId-collage-item-5">
				<rect x="0.0" y="0.0" width="600.0" height="600.0"/>
			</clipPath>
		</defs>

<rect id="square-2-i5" x="87.63" y="87.638" transform="matrix(0.673 -0.7396 0.7396 0.673 -123.796 319.9735)" fill="#EEEEEE" width="424.722" height="424.722"/>

</g>
</g>
</g>

<!-- ITEM 6 -->
<g transform="translate(1090.0 609.0) rotate(0.0 -144.5 441.0) scale(-1.7621951219512195 1.764)">
<g transform="translate(-0.0 -0.0)">
<g clip-path="url(#clipPathId-collage-item-6)">
		<defs>
			<clipPath id="clipPathId-collage-item-6">
				<rect x="0.0" y="0.0" width="164.0" height="500.0"/>
			</clipPath>
		</defs>

<path fill="#F2A19C" d="M110.894,47.774c-0.777-0.12-1.736,0.494-2.024,1.376c-0.191,0.586-0.009,1.198,0.265,1.671  c0.953,1.651,2.835,2.176,4.576,2.598c4.618,1.12,9.238,2.24,13.856,3.36c2.154,0.522,4.372,1.046,6.642,0.58  c0.199-1.025,0.397-2.048,0.596-3.073c0.044-0.228,0.087-0.473,0.006-0.668c-0.108-0.262-0.391-0.341-0.645-0.395  c-3.833-0.821-7.698-1.564-11.388-2.847C118.927,49.039,115.174,48.436,110.894,47.774z"/>
<g>
	<path fill="#23286B" d="M28.006,31.654c-0.219,0-0.422-0.139-0.492-0.358c-0.087-0.271,0.063-0.56,0.335-0.647   c5.859-1.865,11.056-5.633,14.639-10.61c1.466-2.038,2.683-4.301,3.859-6.491c0.718-1.336,1.46-2.715,2.255-4.041   c2.636-4.391,5.478-7.266,8.691-8.789c2.011-0.955,4.613-1.143,5.898,0.584c0.17,0.229,0.122,0.551-0.108,0.721   c-0.231,0.17-0.553,0.122-0.724-0.107c-0.931-1.25-3.049-1.014-4.622-0.268c-3.065,1.454-5.686,4.119-8.248,8.388   c-0.783,1.305-1.519,2.674-2.231,3.999c-1.193,2.218-2.426,4.512-3.932,6.604c-3.71,5.156-9.096,9.059-15.165,10.991   C28.112,31.647,28.058,31.654,28.006,31.654z"/>
</g>
<path fill="#D62929" d="M77.879,419.956c7.252-14.703,2.116-32.421,5.351-48.481c3.071-15.249,13.498-28.108,17.582-43.119  c1.993-7.325,2.421-14.969,2.839-22.546c0.929-16.83,1.857-33.717,0.575-50.525c-1.021-13.399-3.444-26.718-3.321-40.156  s3.078-27.391,11.568-37.838c10.9,6.903,24.176,10.005,37.023,8.653c-11.142,97.694-28.749,194.655-52.668,290.049  c-12.812,0.114-25.625,0.228-38.436,0.342c-2.581-13.806,0.461-28.572,8.294-40.252C70.336,430.641,74.982,425.829,77.879,419.956z"/>
<path fill="#1D72D8" d="M88.719,62.207c0.84,5.328-0.585,9.972-6.105,9.972S67.782,65.77,67.782,61.693  c0-2.038,0.129-3.338,2.279-4.879c1.675-1.201,5.334-1.046,8.094-1.046C83.673,55.768,88.084,58.18,88.719,62.207z"/>
<linearGradient id="SVGID_1_-i6" gradientUnits="userSpaceOnUse" x1="62.1712" y1="149.6822" x2="145.8192" y2="224.1916" gradientTransform="matrix(1 0 0 -1 0 502)">
	<stop offset="0" style="stop-color:#E94A47"/>
	<stop offset="1" style="stop-color:#D62929"/>
</linearGradient>
<path fill="url(#SVGID_1_-i6)" d="M62.513,380.664c-1.589,8.479-0.675,17.336-2.122,25.847c-4.123,24.27-26.858,45.225-20.191,68.788  c13.491,1.283,26.969,2.736,40.431,4.36c33.502-98.787,71.474-256.65,68.158-305.8c-12.719-1.865-22.129-2.287-34.954-2.669  c-3.606-0.107-7.397-0.108-10.563,1.81c-3.668,2.222-4.896,2.554-7.226,6.489c-11.122,18.775-6.77,28.403-3.384,42.844  c3.91,16.683-0.359,40.911-2.417,58.73c-2.709,23.451-4.987,47.098-13.596,66.484C71.763,358.546,64.763,368.657,62.513,380.664z"/>
<path fill="#1D72D8" d="M137.075,139.297c-6.746-4.805-15.416-5.796-23.669-6.634c-9.964-1.013-19.927-2.026-29.891-3.039  c-0.203-11.081-2.145-22.052-3.044-33.099s-5.379-21.342,9.127-32.253c12.411,11.072,16.38,14.466,25.95,27.119  C125.12,104.044,134.837,123.616,137.075,139.297z"/>
<path fill="#F4AFAB" d="M80.718,41.421c3.518,0.914,7.251,0.996,10.805,0.236c-3.549,8.011-5.77,16.602-6.544,25.323  c-4.515-3.034-9.96-4.675-15.407-4.643c5.448-3.238,7.96-9.647,10.101-15.594C80.292,45.025,80.92,43.234,80.718,41.421z"/>
<linearGradient id="SVGID_2_-i6" gradientUnits="userSpaceOnUse" x1="102.841" y1="413.7474" x2="157.459" y2="413.7474" gradientTransform="matrix(1 0 0 -1 0 502)">
	<stop offset="0" style="stop-color:#FFBEB6"/>
	<stop offset="1" style="stop-color:#F2A19C"/>
</linearGradient>
<path fill="url(#SVGID_2_-i6)" d="M135.15,51.739c5.088,1.496,5.532,3.333,6.907,8.436c4.873,18.084,10.894,40.807,17.94,58.166  c-6.624,3.195-11.625,4.708-18.782,6.426c-1.012-21.824-2.049-43.829-7.505-64.989C132.974,56.919,132.535,53.124,135.15,51.739z"/>
<polygon fill="#428DFC" points="147.784,78.318 134.044,81.104 136.159,91.466 150.107,90.429 "/>
<linearGradient id="SVGID_3_-i6" gradientUnits="userSpaceOnUse" x1="104.262" y1="452.6367" x2="143.6689" y2="452.6367" gradientTransform="matrix(1 0 0 -1 0 502)">
	<stop offset="0" style="stop-color:#FFBEB6"/>
	<stop offset="1" style="stop-color:#F2A19C"/>
</linearGradient>
<path fill="url(#SVGID_3_-i6)" d="M139.646,56c-1.078,2.685-3.959,3.491-8.654,2.241c-1.064-0.283-3.887-2.333-4.605-3.531  c-2.538-4.236-6.324-6.225-8.014-10.215c-0.749-1.767,0.27-2.843,1.906-4.097c0.351-0.392,1.505-0.668,1.919-0.341  c3.437,2.725,6.874,5.45,10.312,8.175c2.249,1.783,4.5,3.567,6.61,5.508c0.304,0.28,0.62,0.585,0.724,0.983  C139.957,55.146,139.81,55.593,139.646,56z"/>
<linearGradient id="SVGID_4_-i6" gradientUnits="userSpaceOnUse" x1="95.2237" y1="461.79" x2="123.1533" y2="461.79" gradientTransform="matrix(1 0 0 -1 0 502)">
	<stop offset="0" style="stop-color:#FFBEB6"/>
	<stop offset="1" style="stop-color:#F2A19C"/>
</linearGradient>
<path fill="url(#SVGID_4_-i6)" d="M95.317,33.769c-0.516,1.466,1.208,2.936,2.577,3.597c5.654,2.733,11.377,5.489,17.249,6.596  c2.822,0.532,6.015,0.89,8.01,3.53c-0.442-2.468-0.884-4.936-1.326-7.404c-7.705-0.15-15.607-2.362-22.946-6.424  C97.616,32.965,95.802,32.391,95.317,33.769z"/>
<path fill="#D62929" d="M149.565,82.878c2.846,14.465,8.066,25.174,12.728,39.164s-1.29,39.154-5.158,42.363  c-5.919,1.693-12.434-6.013-17.409-9.628c-10.441-7.588-6.562-8.402-15.014-18.139c1.986-10.156-1.645-20.088-2.206-30.418  c7.182,10.705,10.684,8.968,17.866,19.674c-0.475-15.911-5.619-40.979-5.619-40.979S145.493,82.761,149.565,82.878z"/>
<linearGradient id="SVGID_5_-i6" gradientUnits="userSpaceOnUse" x1="87.5645" y1="454.2285" x2="62.6264" y2="490.2258" gradientTransform="matrix(1 0 0 -1 0 502)">
	<stop offset="0" style="stop-color:#FFBEB6"/>
	<stop offset="1" style="stop-color:#F2A19C"/>
</linearGradient>
<path fill="url(#SVGID_5_-i6)" d="M83.622,15.679c2.099,0.288,4.112-1.269,6.221-1.475c2.702-0.265,2.511,4.842,2.136,7.518  c-0.577,4.119,1.046,8.466,1.913,12.534c1.027,4.823,1.382,5.748-1.229,8.995c-2.862,3.559-12.384,6.365-16.924,5.777  s-6.912-1.495-10.956-3.634c-4.869-2.575-9.971-5.499-12.493-10.38c-3.861-7.473-0.001-17.059,6.549-22.36  c1.682-1.361,3.581-2.549,5.708-2.967c4.737-0.933,9.235,2.028,13.691,3.881C80.706,14.594,80.97,15.314,83.622,15.679z"/>
<linearGradient id="SVGID_6_-i6" gradientUnits="userSpaceOnUse" x1="30.2141" y1="477.1071" x2="75.5723" y2="477.1071" gradientTransform="matrix(1 0 0 -1 0 502)">
	<stop offset="0" style="stop-color:#23286B"/>
	<stop offset="1" style="stop-color:#151A4F"/>
</linearGradient>
<path fill="url(#SVGID_6_-i6)" d="M62.711,32.605c0.399-1.718,1.613-3.139,3.146-4.02c2.71-1.558,5.856-1.487,8.856-1.124  c-4.061-4.791-5.283-11.018-2.502-16.644c-2.67-4.373-8.821-11.537-11.636-10.117C50.933,5.564,48.058,18.247,41.799,27.02  c-2.593,3.635-5.247,4.541-10.405,7.537c-4.631,2.69,5.616,6.909,9.258,8.136c5.225,1.761,34.355,6.577,34.355,6.577  c0.999-1.259,0.575-3.203-0.492-4.405c-1.067-1.203-2.61-1.854-4.081-2.51C66.304,40.513,61.663,37.111,62.711,32.605z"/>
<g>
	<path fill="#5E9EFC" d="M81.375,22.743c-1.208,0-2.479-0.29-3.681-0.839c-3.382-1.548-5.24-4.741-4.143-7.12   c0.678-1.468,2.34-2.345,4.445-2.345c1.207,0,2.479,0.29,3.68,0.839c1.606,0.735,2.925,1.858,3.712,3.16   c0.825,1.366,0.979,2.771,0.43,3.958C85.141,21.865,83.481,22.743,81.375,22.743z M77.997,13.469c-1.69,0-3,0.652-3.505,1.745   c-0.86,1.862,0.772,4.442,3.636,5.753c1.065,0.487,2.189,0.746,3.249,0.746c1.69,0,2.999-0.653,3.504-1.745   c0.4-0.868,0.267-1.932-0.377-2.998c-0.682-1.128-1.838-2.107-3.258-2.757C80.178,13.726,79.056,13.469,77.997,13.469z"/>
</g>
<linearGradient id="SVGID_7_-i6" gradientUnits="userSpaceOnUse" x1="73.6056" y1="339.9795" x2="151.7516" y2="408.5486" gradientTransform="matrix(1 0 0 -1 0 502)">
	<stop offset="0" style="stop-color:#E94A47"/>
	<stop offset="1" style="stop-color:#D62929"/>
</linearGradient>
<path fill="url(#SVGID_7_-i6)" d="M110.163,93.931c0,0-15.563-26.687-11.699-22.436c3.532,3.886,22.405,19.096,33.174,44.528  c12.656,29.887,22.758,61.424,17.151,88.647c-5.415-3.804-19.527-5.869-28.37-8.069c-16.413-4.085-14.803,0.798-30.659-5.077  c4.513-10.591,6.618-15.382,3.384-22.626c-3.232-7.244-12.992-18.507-18.098-24.589c-7.825-9.318-12.986-20.515-18.053-31.562  c-4.372-9.53-7.522-35.734-5.957-37.784c6.814-8.927,7.352-8.212,14.527-12.319C77.752,74.412,110.163,93.931,110.163,93.931z"/>
<linearGradient id="SVGID_8_-i6" gradientUnits="userSpaceOnUse" x1="102.9762" y1="452.9971" x2="142.3064" y2="452.9971" gradientTransform="matrix(1 0 0 -1 0 502)">
	<stop offset="0" style="stop-color:#FFBEB6"/>
	<stop offset="1" style="stop-color:#F2A19C"/>
</linearGradient>
<path fill="url(#SVGID_8_-i6)" d="M120.082,45.865c1.349,1.487,2.698,2.973,4.045,4.46c0.895,0.987,1.886,2.029,3.196,2.279  s2.916-0.785,2.675-2.092c-0.088-0.477-0.393-0.883-0.689-1.268c-1.471-1.913-2.941-3.826-4.412-5.739  c-0.43-0.56-0.876-1.134-1.486-1.491c-0.605-0.355-1.32-0.465-2.017-0.555c-2.008-0.258-4.031-0.395-6.054-0.41  c0.198,1.826-0.066,3.7-0.759,5.402c-0.191,0.469-0.418,0.974-0.28,1.46c0.062,0.218,0.192,0.409,0.322,0.596  c1.766,2.559,3.532,5.118,5.298,7.677c0.203,0.293,0.427,0.604,0.765,0.723c0.358,0.126,0.76-0.001,1.077-0.208  c1.082-0.707,1.356-2.233,0.992-3.469s-1.224-2.257-2.043-3.255c-0.819-0.998-1.642-2.061-1.909-3.322  C119.23,46.39,119.656,46.128,120.082,45.865z"/>
<path fill="#428DFC" d="M80.344,80.338c-0.221-1.123-9.066-13.284-17.652-16.267c1.759-1.341,5.53-6.344,7.242-7.262  c6.457,3.054,10.042,7.349,19.02,10.833C85.756,74.127,83.957,76.629,80.344,80.338z"/>
<path fill="#428DFC" d="M88.792,67.642c4.626,3.658,9.305,6.47,14.023,8.665l-7.414-9.146l-8.704-8.665  C88.327,62.037,89.239,65.199,88.792,67.642z"/>
<path fill="#F2A19C" d="M85.707,202.546c1.367,4.951,2.734,9.902,4.101,14.853c0.274,0.994,1.185,2.25,2.035,1.66  c0.413-0.287,0.466-0.866,0.474-1.368c0.034-2.369-0.101-4.74-0.403-7.09c-0.443-3.446-1.246-6.858-1.308-10.331  c-0.118-6.564,2.408-13.162,1.031-19.583c-0.099-0.462-0.229-0.94-0.55-1.288c-0.326-0.353-0.802-0.52-1.258-0.676  c-1.849-0.628-0.718,2.738-2.567,2.11c2.976,5.312,0.722,7.831-1.011,13.663c-0.478,1.61-1.141,3.209-1.126,4.887  C85.133,200.46,85.421,201.51,85.707,202.546z"/>
<linearGradient id="SVGID_9_-i6" gradientUnits="userSpaceOnUse" x1="68.1964" y1="310.8499" x2="107.2289" y2="310.8499" gradientTransform="matrix(1 0 0 -1 0 502)">
	<stop offset="0" style="stop-color:#FFBEB6"/>
	<stop offset="1" style="stop-color:#F2A19C"/>
</linearGradient>
<path fill="url(#SVGID_9_-i6)" d="M106.86,172.708c-0.25-0.17-0.571-0.188-0.873-0.189c-2.951-0.015-5.873,1.066-8.8,0.698  c-1.344-0.169-2.624-1.285-4.365-0.951c-0.249,0.047-2.566-0.108-3.09-0.126c-6.444-0.218-12.8-2.528-17.871-6.494  c-1.104,2.03-2.206,4.059-3.31,6.088c-0.198,0.365-0.402,0.761-0.344,1.171c0.086,0.607,0.691,0.981,1.236,1.266  c2.658,1.383,5.385,2.636,8.167,3.752c2.404,0.965,4.875,1.84,7.02,3.288c2.145,1.448,3.97,3.579,4.4,6.124  c0.368,2.18-0.313,4.39-1.059,6.472c-2.441,6.808-5.679,13.332-9.626,19.4c-0.719,1.105-1.228,2.982,0.029,3.392  c0.744,0.243,1.48-0.352,2.014-0.923c5.949-6.362,8.453-15.093,12.667-22.705c1.025-1.852,2.181-3.713,2.443-5.811  c0.14-1.12,0.016-2.255-0.109-3.378c-0.22-1.987-0.441-3.975-0.66-5.963c1.823-0.492,3.743-0.688,5.634-0.861  c2.26-0.207,4.738-0.509,6.285-2.163C107.195,174.211,107.522,173.156,106.86,172.708z"/>
<polygon fill="#428DFC" points="77.25,183.307 82.061,170.837 71.632,165.695 65.52,177.676 "/>
<linearGradient id="SVGID_10_-i6" gradientUnits="userSpaceOnUse" x1="30.493" y1="398.7986" x2="103.8584" y2="371.7272" gradientTransform="matrix(0.9987 0.0506 0.0506 -0.9987 -39.1115 503.3242)">
	<stop offset="0" style="stop-color:#E94A47"/>
	<stop offset="1" style="stop-color:#D62929"/>
</linearGradient>
<path fill="url(#SVGID_10_-i6)" d="M33.103,141.501c-2.972-0.472-11.479-5.301-7.094-4.678c4.352,1.018,6.506,3.001,10.858,4.019  c5.62-8.237,13.438-17.438,19.057-25.675c8.716-12.773,15.298-22.949,10.175-37.349c-1.608-4.521-4.944-6.508-10.005-5.916  c-3.266,0.382-5.707,3.979-6.673,5.56c-17.74,29.001-30.2,44.327-47.939,73.328c-1.04,1.699-2.089,3.782-1.06,5.503  c0.576,0.963,1.681,1.552,2.747,2.064c20.73,9.947,47.866,15.336,66.159,25.156c3.567-6.112,5.133-8.822,8.699-14.934  c-12.925-8.394-26.516-15.934-40.629-22.54c-2.017-0.944-4.172-1.894-6.424-1.753c-5.429,0.34-8.847,6.716-14.286,6.42  C20.91,146.175,26.74,142.907,33.103,141.501z"/>
<g>
	<path fill="#428DFC" d="M135.652,151.034c-0.233,0-0.443-0.156-0.502-0.389c-2-7.924-5.394-15.583-8.42-22.142   c-3.586-7.773-7.656-15.773-14.481-20.677c-6.905-4.962-11.874-5.653-20.105-6.797c-0.174-0.024-0.323-0.134-0.397-0.292   c-0.073-0.158-0.063-0.343,0.03-0.49l5.233-8.349c-6.787-3.394-13.932-6.144-21.248-8.176l-1.161-0.318   c-3.535-0.966-7.192-1.964-10.165-4.203c-5.222-3.934-7.218-11.676-4.545-17.629c0.116-0.259,0.421-0.376,0.684-0.259   c0.261,0.116,0.378,0.421,0.261,0.681c-2.485,5.532-0.629,12.73,4.224,16.387c2.815,2.12,6.373,3.091,9.814,4.032l1.164,0.32   c7.563,2.102,14.946,4.962,21.942,8.504c0.129,0.065,0.225,0.182,0.264,0.321c0.039,0.139,0.018,0.288-0.06,0.41l-5.11,8.155   c7.923,1.106,12.889,1.923,19.778,6.873c7.028,5.05,11.172,13.184,14.814,21.082c3.044,6.6,6.462,14.312,8.484,22.32   c0.068,0.276-0.099,0.556-0.375,0.625C135.735,151.028,135.693,151.034,135.652,151.034z"/>
</g>
<linearGradient id="SVGID_11_-i6" gradientUnits="userSpaceOnUse" x1="-1228.0332" y1="14.7709" x2="-1148.7806" y2="14.7709" gradientTransform="matrix(-1 0 0 -1 -1083.0391 502)">
	<stop offset="0" style="stop-color:#428DFC"/>
	<stop offset="1" style="stop-color:#1D72D8"/>
</linearGradient>
<path fill="url(#SVGID_11_-i6)" d="M144.188,499.77c4.668-2.013-11.925-15.308-24.583-20.136c-7.641-2.914-10.897-4.904-18.386-5.093  c-8.476-0.214-26.062,0.132-34.537-0.082c-0.232,8.682-1.689,25.312-0.444,25.157C74.9,500.468,143.099,499.614,144.188,499.77z"/>
<linearGradient id="SVGID_12_-i6" gradientUnits="userSpaceOnUse" x1="-1200.9543" y1="14.7709" x2="-1121.7014" y2="14.7709" gradientTransform="matrix(-1 0 0 -1 -1083.0391 502)">
	<stop offset="0" style="stop-color:#428DFC"/>
	<stop offset="1" style="stop-color:#1D72D8"/>
</linearGradient>
<path fill="url(#SVGID_12_-i6)" d="M117.11,499.77c4.668-2.013-11.925-15.308-24.583-20.136c-7.641-2.914-10.897-4.904-18.386-5.093  c-8.476-0.214-26.062,0.132-34.537-0.082c-0.232,8.682-1.689,25.312-0.445,25.157C47.821,500.468,116.02,499.614,117.11,499.77z"/>
<path id="texture_3_-i6" fill="#FFFFFF" d="M71.928,74.368c-0.182,0.077-0.282,0.247-0.205,0.428l0,0  c0.078,0.181,0.248,0.281,0.43,0.204l0,0c0.182-0.077,0.282-0.247,0.205-0.428l0,0C72.282,74.39,72.11,74.292,71.928,74.368  L71.928,74.368z M43.353,91.102C43.183,91.004,43,91.08,42.9,91.251c-0.099,0.17-0.023,0.352,0.149,0.451l0,0  c0.171,0.099,0.354,0.023,0.453-0.148C43.691,91.389,43.525,91.201,43.353,91.102L43.353,91.102L43.353,91.102z M51.126,94.421  c-0.171-0.099-0.354-0.023-0.453,0.148c-0.099,0.17-0.023,0.352,0.149,0.451l0,0c0.171,0.099,0.354,0.023,0.453-0.148l0,0  C51.369,94.79,51.297,94.521,51.126,94.421L51.126,94.421z M56.563,78.78c-0.099,0.17-0.111,0.346-0.034,0.528  c0.171,0.099,0.348,0.11,0.531,0.034c0.099-0.17,0.111-0.346,0.028-0.44C56.929,78.627,56.752,78.616,56.563,78.78z M62.471,84.896  c-0.099,0.17-0.111,0.346-0.034,0.528c0.171,0.099,0.348,0.11,0.531,0.034c0.099-0.17,0.111-0.346,0.028-0.44  C62.836,84.743,62.57,84.726,62.471,84.896L62.471,84.896z M43.598,108.075c-0.177-0.011-0.365,0.153-0.375,0.33  c-0.011,0.176,0.154,0.364,0.331,0.374l0,0c0.177,0.011,0.365-0.153,0.375-0.33l0,0C43.94,108.274,43.774,108.086,43.598,108.075z   M52.102,108.262c-0.177-0.011-0.365,0.153-0.375,0.33c-0.011,0.176,0.154,0.364,0.331,0.374c0.177,0.011,0.365-0.153,0.375-0.33  l0,0C52.445,108.46,52.279,108.273,52.102,108.262L52.102,108.262L52.102,108.262z M62.684,73.251  c-0.094,0.082-0.2,0.341-0.028,0.44c0.083,0.094,0.342,0.199,0.442,0.028c0.094-0.082,0.2-0.341,0.028-0.44l0,0  C63.049,73.098,62.872,73.087,62.684,73.251L62.684,73.251z M67.454,79.118c-0.094,0.082-0.2,0.341-0.028,0.44  c0.083,0.094,0.253,0.193,0.442,0.028c0.094-0.082,0.193-0.252,0.028-0.44l0,0C67.724,79.047,67.549,79.036,67.454,79.118  L67.454,79.118L67.454,79.118z M47.523,100.817c-0.177-0.011-0.359,0.066-0.37,0.241c-0.011,0.176,0.071,0.27,0.242,0.369l0,0  c0.177,0.011,0.359-0.066,0.37-0.241l0,0C47.776,101.01,47.699,100.829,47.523,100.817L47.523,100.817z M55.011,101.645  c-0.177-0.011-0.359,0.066-0.37,0.241c-0.011,0.176,0.071,0.27,0.242,0.369l0,0c0.177,0.011,0.359-0.066,0.37-0.241l0,0  C55.264,101.839,55.187,101.656,55.011,101.645L55.011,101.645z M56.139,86.791c-0.171-0.099-0.354-0.023-0.453,0.148  c-0.099,0.17-0.023,0.352,0.149,0.451c0.171,0.099,0.354,0.023,0.453-0.148C56.388,87.072,56.31,86.89,56.139,86.791L56.139,86.791z   M55.237,70.394c-0.171-0.099-0.354-0.023-0.453,0.148c-0.099,0.17-0.023,0.352,0.149,0.451c0.172,0.099,0.354,0.023,0.453-0.148  C55.486,70.675,55.408,70.493,55.237,70.394L55.237,70.394z M62.865,74.587c-0.171-0.099-0.354-0.023-0.453,0.148  c-0.099,0.17-0.023,0.352,0.149,0.451c0.171,0.099,0.354,0.023,0.453-0.148C63.113,74.868,63.036,74.687,62.865,74.587  L62.865,74.587z M70.586,78.699c-0.171-0.099-0.354-0.023-0.453,0.148c-0.099,0.17-0.023,0.352,0.149,0.451  c0.171,0.099,0.354,0.023,0.453-0.148C70.746,78.974,70.669,78.793,70.586,78.699z M51.05,106.694  c-0.182,0.077-0.282,0.247-0.205,0.428c0.078,0.181,0.248,0.281,0.43,0.204c0.182-0.077,0.282-0.247,0.205-0.428  C51.492,106.722,51.232,106.617,51.05,106.694L51.05,106.694z M81.093,72.565c-0.166-0.187-0.342-0.199-0.531-0.034 M53.669,87.959  c-0.177-0.011-0.365,0.153-0.375,0.33c-0.011,0.176,0.154,0.364,0.331,0.374c0.177,0.011,0.365-0.153,0.375-0.33l0,0  C54.012,88.157,53.846,87.97,53.669,87.959L53.669,87.959L53.669,87.959z M52.804,82.074c-0.177-0.011-0.365,0.153-0.375,0.33  c-0.011,0.176,0.154,0.364,0.331,0.374c0.177,0.011,0.359-0.066,0.375-0.33C53.146,82.273,52.98,82.086,52.804,82.074L52.804,82.074  z M61.418,83.328c-0.177-0.011-0.365,0.153-0.375,0.33c-0.011,0.176,0.066,0.357,0.331,0.374c0.177,0.011,0.365-0.153,0.464-0.323  C61.76,83.526,61.595,83.339,61.418,83.328L61.418,83.328z M70.889,71.21c-0.171-0.099-0.354-0.023-0.453,0.148l0,0  c-0.099,0.17-0.023,0.352,0.143,0.539c0.171,0.099,0.354,0.023,0.541-0.142C71.137,71.492,71.059,71.309,70.889,71.21L70.889,71.21z   M72.188,74.473c-0.177-0.011-0.271,0.071-0.365,0.153c-0.011,0.176,0.071,0.27,0.154,0.364c0.177,0.011,0.271-0.071,0.365-0.153  l0,0C72.353,74.66,72.276,74.478,72.188,74.473L72.188,74.473L72.188,74.473z"/>

</g>
</g>
</g>

              </svg>